<svg xmlns="http://www.w3.org/2000/svg" width="1024" height="240.9" viewBox="0 0 1024 240.9"><g fill="#f18549"><g id="logo-subtitle"><path d="M340 225.3h-27.8a12 12 0 0 0 4 8.4c2.4 2.1 5.4 3.2 9.1 3.2 2 0 4-.4 5.7-1.1 1.7-.7 3.3-1.8 4.5-3.3l2.6 3a14.3 14.3 0 0 1-5.6 4c-2.2 1-4.7 1.4-7.3 1.4-3.4 0-6.5-.7-9.1-2.2a15.7 15.7 0 0 1-6.2-6 17.4 17.4 0 0 1-2.2-8.8c0-3.2.7-6.2 2-8.8A16.2 16.2 0 0 1 324 207c3.2 0 6 .8 8.4 2.2 2.4 1.5 4.4 3.5 5.8 6a18 18 0 0 1 2 8.8zM316 213.9c-2.2 2-3.4 4.7-3.7 8h23.6c-.3-3.3-1.5-6-3.7-8-2.1-2-4.9-3-8.1-3-3.3 0-6 1-8.1 3z"/><path d="M358.2 193.5h4.5v47h-4.5z"/><path d="M413.1 225.3h-27.9a12 12 0 0 0 4 8.4c2.4 2.1 5.5 3.2 9.1 3.2 2.1 0 4-.4 5.8-1.1 1.7-.7 3.2-1.8 4.5-3.3l2.5 3a14.3 14.3 0 0 1-5.6 4c-2.2 1-4.6 1.4-7.3 1.4-3.4 0-6.4-.7-9-2.2a15.7 15.7 0 0 1-6.3-6 17.4 17.4 0 0 1-2.2-8.8c0-3.2.7-6.2 2.1-8.8A16.2 16.2 0 0 1 397 207c3.1 0 5.9.8 8.3 2.2 2.5 1.5 4.4 3.5 5.8 6a18 18 0 0 1 2 8.8zM389 213.9c-2.2 2-3.4 4.7-3.7 8H409c-.3-3.3-1.6-6-3.7-8-2.2-2-5-3-8.2-3-3.2 0-6 1-8 3z"/><path d="M436.2 238.8a15.6 15.6 0 0 1-6.1-6.1 17.5 17.5 0 0 1-2.3-8.8c0-3.2.8-6.2 2.3-8.8 1.4-2.5 3.5-4.5 6-6a18 18 0 0 1 9-2.1c2.8 0 5.4.5 7.6 1.6 2.3 1.2 4 2.8 5.4 5l-3.4 2.2c-1-1.6-2.5-2.8-4.1-3.7-1.7-.8-3.6-1.2-5.6-1.2a13 13 0 0 0-6.5 1.6c-1.9 1-3.4 2.6-4.5 4.6a14 14 0 0 0-1.6 6.8c0 2.5.5 4.9 1.6 6.8 1.1 2 2.6 3.5 4.5 4.6 2 1 4.1 1.6 6.5 1.6 2 0 3.9-.4 5.6-1.2 1.6-.8 3-2 4.1-3.7l3.4 2.3a12.8 12.8 0 0 1-5.4 5 17.1 17.1 0 0 1-7.7 1.6 18 18 0 0 1-8.8-2.1z"/><path d="M493.7 238.6c-.8.7-1.9 1.3-3.1 1.7-1.3.4-2.6.6-4 .6-3 0-5.5-.8-7.2-2.5-1.7-1.7-2.5-4.1-2.5-7.2V211h-6v-3.8h6V200h4.5v7.3h10.1v3.8h-10.1v20c0 2 .5 3.5 1.5 4.5s2.4 1.5 4.3 1.5c.9 0 1.8-.1 2.7-.4.8-.3 1.6-.7 2.2-1.3z"/><path d="M519.7 208.7a16 16 0 0 1 7.8-1.7v4.3h-1c-3.6 0-6.3 1-8.3 3.2a13 13 0 0 0-3 9v17h-4.5v-33.3h4.3v6.6c1-2.3 2.7-4 4.7-5.1z"/><path d="M544.4 199c-.6-.7-1-1.4-1-2.3a3 3 0 0 1 1-2.2c.6-.7 1.4-1 2.3-1 1 0 1.8.3 2.4 1a3 3 0 0 1 1 2.1c0 1-.4 1.7-1 2.4-.6.6-1.4 1-2.4 1-.9 0-1.7-.4-2.3-1zm0 8.2h4.6v33.4h-4.5z"/><path d="M575.3 238.8a15.6 15.6 0 0 1-6-6.1 17.5 17.5 0 0 1-2.3-8.8c0-3.2.7-6.2 2.2-8.8 1.5-2.5 3.5-4.5 6.1-6a18 18 0 0 1 8.9-2.1c2.9 0 5.4.5 7.7 1.6 2.3 1.2 4 2.8 5.4 5l-3.4 2.2c-1.1-1.6-2.5-2.8-4.2-3.7-1.7-.8-3.5-1.2-5.5-1.2a13 13 0 0 0-6.5 1.6c-2 1-3.4 2.6-4.5 4.6a14 14 0 0 0-1.6 6.8c0 2.5.5 4.9 1.6 6.8 1 2 2.6 3.5 4.5 4.6 1.9 1 4 1.6 6.5 1.6 2 0 3.8-.4 5.5-1.2 1.7-.8 3.1-2 4.2-3.7l3.4 2.3a12.8 12.8 0 0 1-5.4 5 17.1 17.1 0 0 1-7.7 1.6 18 18 0 0 1-8.9-2.1z"/><path d="M636.6 210.2c2.3 2.2 3.5 5.4 3.5 9.7v20.7h-4.3v-5.2c-1 1.7-2.5 3-4.5 4s-4.3 1.5-7 1.5c-3.7 0-6.7-.9-8.9-2.7a8.6 8.6 0 0 1-3.3-7c0-3 1-5.1 3-6.9 2.1-1.7 5.4-2.6 9.9-2.6h10.6v-2c0-2.9-.8-5-2.4-6.6-1.6-1.5-4-2.2-7-2.2a18 18 0 0 0-6.2 1c-2 .7-3.6 1.7-5 3l-2-3.4a18 18 0 0 1 6-3.4c2.5-.7 5-1.1 7.6-1.1 4.3 0 7.7 1 10 3.2zm-5 25.4c1.8-1.1 3.1-2.8 4-5V225H625c-5.7 0-8.5 2-8.5 6 0 2 .7 3.4 2.2 4.6a10 10 0 0 0 6.2 1.7c2.7 0 4.7-.6 6.5-1.8z"/><path d="M661.2 193.5h4.5v47h-4.5z"/><path d="M713.7 239.7c-2.5-.7-4.4-1.7-5.8-3l2-3.5a20.9 20.9 0 0 0 11.9 3.7c3 0 5.3-.4 6.7-1.4 1.5-.9 2.2-2.3 2.2-4 0-1.2-.4-2.2-1.2-2.9a8.2 8.2 0 0 0-3-1.6 41 41 0 0 0-5-1c-2.6-.5-4.8-1-6.5-1.6-1.6-.5-3-1.4-4.2-2.7a7.5 7.5 0 0 1-1.7-5.2c0-2.8 1.1-5.1 3.5-6.9 2.3-1.8 5.5-2.6 9.7-2.6 2.1 0 4.3.2 6.4.8 2.2.6 4 1.3 5.4 2.3l-2 3.6c-2.7-2-6-2.9-9.8-2.9-2.9 0-5 .5-6.5 1.6a4.7 4.7 0 0 0-2.2 4 4 4 0 0 0 1.2 3c.8.8 1.9 1.3 3 1.7 1.3.3 3 .7 5.2 1l6.4 1.6c1.6.5 3 1.4 4.1 2.6 1.1 1.2 1.7 3 1.7 5a8 8 0 0 1-3.6 7 17.3 17.3 0 0 1-10.2 2.6c-2.7 0-5.3-.4-7.7-1.2z"/><path d="M781.4 225.3h-28a12 12 0 0 0 4 8.4c2.5 2.1 5.5 3.2 9.2 3.2 2.1 0 4-.4 5.7-1.1 1.8-.7 3.3-1.8 4.5-3.3l2.6 3a14.3 14.3 0 0 1-5.6 4c-2.2 1-4.6 1.4-7.3 1.4-3.4 0-6.5-.7-9.1-2.2a15.7 15.7 0 0 1-6.2-6 17.4 17.4 0 0 1-2.2-8.8c0-3.2.7-6.2 2.1-8.8 1.4-2.5 3.4-4.5 5.8-6 2.5-1.4 5.3-2.1 8.4-2.1a15.3 15.3 0 0 1 14 8.2 18 18 0 0 1 2.2 8.7zm-24.2-11.4c-2.2 2-3.4 4.7-3.7 8h23.7c-.3-3.3-1.6-6-3.8-8-2.1-2-4.9-3-8.1-3-3.3 0-6 1-8.1 3z"/><path d="M808.5 208.7a16 16 0 0 1 7.8-1.7v4.3h-1c-3.6 0-6.3 1-8.3 3.2a13 13 0 0 0-3 9v17h-4.5v-33.3h4.3v6.6c1-2.3 2.6-4 4.7-5.1z"/><path d="m862.8 207.2-14.9 33.4h-4.6l-14.8-33.4h4.7l12.5 28.4 12.6-28.4z"/><path d="M877.9 199c-.7-.7-1-1.4-1-2.3a3 3 0 0 1 1-2.2c.6-.7 1.4-1 2.3-1 1 0 1.7.3 2.4 1a3 3 0 0 1 1 2.1c0 1-.4 1.7-1 2.4-.7.6-1.5 1-2.4 1-1 0-1.7-.4-2.3-1zm0 8.2h4.5v33.4H878z"/><path d="M908.8 238.8a15.6 15.6 0 0 1-6.1-6.1 17.5 17.5 0 0 1-2.2-8.8c0-3.2.7-6.2 2.2-8.8 1.4-2.5 3.5-4.5 6.1-6a18 18 0 0 1 8.8-2.1c3 0 5.5.5 7.8 1.6 2.2 1.2 4 2.8 5.3 5l-3.3 2.2c-1.1-1.6-2.5-2.8-4.2-3.7-1.7-.8-3.6-1.2-5.6-1.2a13 13 0 0 0-6.5 1.6c-1.9 1-3.4 2.6-4.5 4.6a14 14 0 0 0-1.6 6.8c0 2.5.6 4.9 1.6 6.8 1.1 2 2.6 3.5 4.5 4.6 2 1 4.1 1.6 6.5 1.6 2 0 3.9-.4 5.6-1.2 1.7-.8 3-2 4.2-3.7l3.3 2.3a12.8 12.8 0 0 1-5.4 5 17.1 17.1 0 0 1-7.7 1.6 18 18 0 0 1-8.8-2.1z"/><path d="M976.9 225.3h-28a12 12 0 0 0 4 8.4c2.4 2.1 5.5 3.2 9.2 3.2 2 0 4-.4 5.7-1.1 1.7-.7 3.2-1.8 4.5-3.3l2.5 3a14.3 14.3 0 0 1-5.5 4c-2.3 1-4.7 1.4-7.4 1.4-3.4 0-6.4-.7-9-2.2a15.7 15.7 0 0 1-6.3-6 17.4 17.4 0 0 1-2.2-8.8c0-3.2.7-6.2 2.2-8.8 1.4-2.5 3.3-4.5 5.8-6 2.5-1.4 5.2-2.1 8.3-2.1a15.3 15.3 0 0 1 14 8.2 18 18 0 0 1 2.2 8.7zm-24.3-11.4c-2.1 2-3.4 4.7-3.7 8h23.7c-.3-3.3-1.5-6-3.7-8s-5-3-8.2-3c-3.2 0-5.9 1-8 3z"/><path d="M996.1 239.7c-2.5-.7-4.4-1.7-5.8-3l2-3.5a20.9 20.9 0 0 0 11.9 3.7c3 0 5.3-.4 6.8-1.4 1.4-.9 2.1-2.3 2.1-4 0-1.2-.3-2.2-1.2-2.9a8.2 8.2 0 0 0-3-1.6 41 41 0 0 0-4.9-1c-2.7-.5-4.9-1-6.5-1.6-1.7-.5-3-1.4-4.2-2.7a7.5 7.5 0 0 1-1.8-5.2c0-2.8 1.2-5.1 3.5-6.9 2.3-1.8 5.6-2.6 9.7-2.6 2.2 0 4.3.2 6.5.8 2.1.6 4 1.3 5.3 2.3l-2 3.6c-2.7-2-6-2.9-9.8-2.9-2.9 0-5 .5-6.5 1.6a4.7 4.7 0 0 0-2.2 4 4 4 0 0 0 1.3 3c.8.8 1.8 1.3 3 1.7 1.3.3 3 .7 5.1 1l6.4 1.6c1.6.5 3 1.4 4.1 2.6 1.2 1.2 1.8 3 1.8 5a8 8 0 0 1-3.7 7 17.3 17.3 0 0 1-10.1 2.6c-2.7 0-5.3-.4-7.8-1.2z"/></g><g id="logo-title"><path d="M303.4 101.1A54.6 54.6 0 0 1 402.3 70c.5.7.5 2-.2 2.5L392 80.7c-1 .7-2.3.4-2.9-.5a36.5 36.5 0 0 0-31-17 38 38 0 0 0-37.2 38v.1a38 38 0 0 0 37.2 38.3c14.2 0 25.7-6.8 32-17 .6-.9 1.7-1.2 2.8-.4L403 130c1.3 1 1 2 .6 2.7a55.4 55.4 0 0 1-45.5 23.1c-30 0-54.7-24.5-54.7-54.6z"/><path d="M424.3 110.5V71.8l-.2-20.8c0-1.3 1-1.8 2-1.8h13.8c1 0 2 .5 2 1.8l-.2 20.8v39c0 16.7 10.4 29 28.6 29 18.3 0 28.7-12.3 28.7-29v-39l-.2-20.8c0-1.3 1-1.8 2-1.8h14c.9 0 1.8.5 1.8 1.8l-.2 20.8v38.8c0 24-15.2 45.2-46 45.2s-46-21.2-46-45.4zm61-94.4-19.6 9.6c-4.7 2.4-6.6 3.8-8.4 4.5-1 .4-1.7-.2-1.8-.5l-5-10.4c-.4-.4-.4-1 .5-1.4 1.6-1 4.1-1.8 9-4.2L480 4l7.2-3.6c1-.5 1.4 0 1.6.4l5.2 10.2c.2.5.2 1.2-.5 1.6-1.1.5-3.6 1.3-8.1 3.6z"/><path d="M652.2 101.9a54.7 54.7 0 0 1-54.8 54 52.6 52.6 0 0 1-34.8-13.6v4.2c0 14-.2 31.4-.3 37.2 0 1-.9 2-2 2h-12.8c-1.1 0-2-1-2-2l-.2-37.8V74.1c0-9-.4-16.5-.4-22.8 0-1 .8-1.7 1.8-1.7h14.1c1 0 1.8.8 1.8 1.8v9.4a52.1 52.1 0 0 1 34.8-13.6c30 0 54.8 24.6 54.8 54.7zm-88.9-9.3v17.9c0 11.6 13.8 29 34.8 29 21 0 37.4-17.6 37.4-38A38.5 38.5 0 0 0 598 63c-20.8 0-34.8 17.5-34.8 29.5z"/><path d="m676.2 153.5.1-20.4V74.7c0-9.8-.3-16-.3-21.6 0-1.1.7-2 2-2h12.5c1.2 0 2 .9 2 2v10A35.1 35.1 0 0 1 719 49.7c6.3 0 11 .7 15.2 2.3 1.5.5 1.5 1.4 1.3 2.1l-3 11.7c-.2 1.2-1.3 1.8-2.2 1.4a25.8 25.8 0 0 0-10.2-1.8c-14.9 0-26.5 11.8-26.5 28.5V133l.2 20.4c0 1.3-1 1.8-2 1.8h-14c-.9 0-1.8-.5-1.8-1.8z"/><path d="M752 28.6c0-5.5 4-9.1 10.8-9.1 6.5 0 10.8 3.6 10.8 9.1 0 5.6-4.3 9-10.8 9-6.8 0-10.9-3.6-10.9-9zm1.9 125.4.2-20.3V73.6l-.2-20.3c0-1.2.9-1.8 2-1.8h13.7c1.1 0 2 .6 2 1.8l-.2 20.3v60.1l.2 20.3c0 1.2-.9 1.8-2 1.8H756c-1.1 0-2-.6-2-1.8z"/><path d="M798.3 101.1A54.6 54.6 0 0 1 897.2 70c.5.7.5 2-.2 2.5l-10.2 8.2c-1 .7-2.3.4-2.9-.5a36.5 36.5 0 0 0-31-17 38 38 0 0 0-37.2 38v.1a38 38 0 0 0 37.2 38.3c14.2 0 25.7-6.8 32-17 .6-.9 1.7-1.2 2.8-.4l10.2 7.7c1.3 1 .9 2 .6 2.7a55.4 55.4 0 0 1-45.5 23.1c-30 0-54.7-24.5-54.7-54.6z"/><path d="M915 101.1a54.5 54.5 0 0 1 109 0 55 55 0 0 1-54.4 54.7 54.9 54.9 0 0 1-54.7-54.7zm91.6 0c0-20.4-16.3-38-37-38a37.8 37.8 0 0 0-37.3 38v.2a38 38 0 0 0 37.3 38.4c20.7 0 37-17.6 37-38.6z"/></g><g id="logo-icon"><path d="M230 0v39H63.8l18.6 40H36.9L0 0Z"/><path d="M1.1 198.7h231.2v39.1H1.1z"/><path d="M18.4 99.4h177.7v39.1H18.4z"/></g></g></svg>