<svg xmlns="http://www.w3.org/2000/svg" width="1024" height="748.7" viewBox="0 0 1024 748.7">
<style>
/*
@keyframes show-from {
  0% {
    transform: var(--show-from, translateY(3rem));
    opacity: 0;
  }
  100% {
    transform: none;
    opacity: 1;
  }
}
*/
#logo-icon,
#logo-title,
#logo-sub {
  transform-box: fill-box;
  transform-origin: center;
  animation: show-from .5s 1s both;
  animation-delay: calc(.25s + .125s * var(--delay));
}
#logo-icon  { --delay: 0; }
#logo-title { --delay: 1; }
#logo-sub   { --delay: 2; }
</style>
<g class="svg-html" fill="var(--main,#f18549)"><g id="logo-icon"><path d="M362.6 0h295.9v50.3h-214l24 51.2H410z" /><path d="M364.1 255.5h297.3v50.3H364.1z" /><path d="M386.3 127.8h228.5v50.3H386.3z" /></g><g id="logo-title"><path d="M0 535.5a77.6 77.6 0 0 1 77.6-76.8 76.3 76.3 0 0 1 62.9 32.6c.8 1 .8 2.8-.3 3.5l-14.5 11.7c-1.5 1-3.3.5-4-.7-9.5-15-26-24.2-44-24.2a54 54 0 0 0-53 54v.2a54 54 0 0 0 53 54.5 52 52 0 0 0 45.2-24.2c1-1.3 2.6-1.8 4.1-.5l14.5 11c1.8 1.2 1.3 2.7.8 3.8a78.7 78.7 0 0 1-64.7 32.8A78 78 0 0 1 0 535.6Z" /><path d="M171.8 548.8v-55c0-14.8-.2-21.6-.2-29.5 0-1.8 1.2-2.6 2.8-2.6H194c1.5 0 2.8.8 2.8 2.6 0 7.6-.3 16-.3 29.5v55.5c0 23.6 14.8 41.2 40.8 41.2 26 0 40.7-17.6 40.7-41.2v-55.5c0-14.8-.3-21.6-.3-29.5 0-1.8 1.3-2.6 2.8-2.6h19.9c1.3 0 2.5.8 2.5 2.6l-.2 29.5V549c0 34.1-21.6 64.2-65.4 64.2-43.8 0-65.4-30-65.4-64.4zm86.8-134.2-28 13.8c-6.6 3.3-9.4 5.3-12 6.3-1.2.6-2.2-.2-2.5-.7l-7.1-14.8c-.5-.5-.5-1.5.8-2 2.3-1.3 5.8-2.6 12.7-5.9l28.5-14a170 170 0 0 1 10.2-5c1.5-.9 2 0 2.3.4l7.3 14.5c.3.8.3 1.8-.7 2.3-1.5.8-5.1 1.8-11.5 5.1z" /><path d="M495.7 536.5a77.7 77.7 0 0 1-78 77 74.6 74.6 0 0 1-49.3-19.4v5.8c0 19.9-.3 44.7-.4 52.9 0 1.5-1.3 2.7-2.8 2.7h-18.3a2.8 2.8 0 0 1-2.8-2.7c-.1-8.2-.4-33.1-.4-53.6V497c0-12.8-.5-23.5-.5-32.4 0-1.4 1.1-2.5 2.5-2.5h20.1c1.4 0 2.6 1.1 2.6 2.5v13.5a74.1 74.1 0 0 1 49.3-19.3 78 78 0 0 1 78 77.6zm-126.3-13.2v25.5c0 16.5 19.6 41.2 49.3 41.2 29.8 0 53.2-25 53.2-54s-23.6-54.7-53.2-54.7c-29.5 0-49.3 25-49.3 42z" /><path d="M529.7 610c0-7.9.3-14.8.3-29v-83c0-14-.5-22.7-.5-30.8 0-1.5 1-2.8 2.8-2.8H550c1.8 0 2.8 1.3 2.8 2.8v14.2a50 50 0 0 1 38-19c8.8 0 15.4 1 21.5 3.3 2 .7 2 2 1.8 3l-4.3 16.6c-.3 1.7-1.8 2.5-3 2-5-2-9.7-2.5-14.6-2.5-21.1 0-37.7 16.8-37.7 40.4V581c0 13 .3 21.3.3 29 0 1.8-1.3 2.5-2.8 2.5h-19.9c-1.2 0-2.5-.7-2.5-2.5z" /><path d="M637.4 432.5c0-8 5.8-13 15.5-13 9.2 0 15.3 5 15.3 13 0 7.8-6.1 12.7-15.3 12.7-9.7 0-15.5-5.1-15.5-12.7zm2.8 178.1.2-28.7v-85.6l-.2-28.7c0-1.8 1.3-2.6 2.8-2.6h19.6c1.5 0 2.8.8 2.8 2.6 0 7.6-.3 15.8-.3 28.7V582c0 13 .3 21 .3 28.7 0 1.8-1.3 2.6-2.8 2.6H643c-1.5 0-2.8-.8-2.8-2.6z" /><path d="M703.3 535.5a77.6 77.6 0 0 1 77.6-76.8 76.3 76.3 0 0 1 62.9 32.6c.7 1 .7 2.8-.3 3.5L829 506.5c-1.5 1-3.3.5-4-.7-9.5-15-26-24.2-44.1-24.2a54 54 0 0 0-53 54v.2a54 54 0 0 0 53 54.5 52 52 0 0 0 45.3-24.2c1-1.3 2.6-1.8 4-.5l14.6 11c1.8 1.2 1.3 2.7.8 3.8a78.7 78.7 0 0 1-64.7 32.8 78 78 0 0 1-77.6-77.6z" /><path d="M869 535.5a77.4 77.4 0 0 1 155 0 78 78 0 0 1-77.4 77.7 78 78 0 0 1-77.6-77.7zm130.3 0c0-29-23.1-54-52.7-54-29.5 0-52.9 25-52.9 54v.3a53.9 53.9 0 0 0 53 54.5c29.5 0 52.6-25 52.6-54.8z" /></g><g id="logo-sub"><path d="M54.2 726.5H14.6c.3 5 2.2 9 5.6 12 3.4 3 7.8 4.5 13 4.5 3 0 5.7-.5 8.1-1.6 2.5-1 4.6-2.5 6.4-4.6l3.6 4.1a20.5 20.5 0 0 1-7.9 5.8c-3.1 1.3-6.6 2-10.4 2-4.8 0-9.1-1-12.9-3.1-3.8-2-6.7-5-8.8-8.6a24.6 24.6 0 0 1-3.2-12.5c0-4.6 1-8.7 3-12.4a22 22 0 0 1 8.4-8.6c3.5-2 7.4-3 11.8-3s8.3 1 11.8 3 6.3 5 8.2 8.5c2 3.7 3 7.8 3 12.5v2zm-34.4-16.2a17 17 0 0 0-5.2 11.5h33.6c-.4-4.7-2.2-8.5-5.3-11.5-3-2.9-7-4.3-11.5-4.3a16 16 0 0 0-11.5 4.3z" /><path d="M80 681.3h6.3v67H80z" /><path d="M158 726.5h-39.6c.3 5 2.2 9 5.6 12 3.4 3 7.8 4.5 13 4.5 3 0 5.7-.5 8.1-1.6 2.5-1 4.6-2.5 6.4-4.6l3.6 4.1a20.5 20.5 0 0 1-7.9 5.8c-3.1 1.3-6.6 2-10.4 2-4.8 0-9.1-1-12.9-3.1-3.8-2-6.7-5-8.8-8.6a24.6 24.6 0 0 1-3.2-12.5c0-4.6 1-8.7 3-12.4a22 22 0 0 1 8.4-8.6c3.5-2 7.4-3 11.8-3s8.3 1 11.8 3 6.3 5 8.2 8.5c2 3.7 3 7.8 3 12.5v2zm-34.4-16.2a17 17 0 0 0-5.2 11.5H152c-.4-4.7-2.2-8.5-5.3-11.5-3-2.9-7-4.3-11.6-4.3a16 16 0 0 0-11.5 4.3z" /><path d="M190.8 745.6c-3.7-2-6.6-4.9-8.7-8.6a24.8 24.8 0 0 1-3.2-12.5c0-4.6 1-8.7 3.2-12.4 2.1-3.7 5-6.5 8.7-8.6 3.7-2 7.9-3 12.6-3 4 0 7.7.8 11 2.3 3.2 1.6 5.7 4 7.6 7l-4.8 3.3a15 15 0 0 0-6-5.3c-2.3-1.1-5-1.7-7.8-1.7-3.4 0-6.5.7-9.2 2.3a16 16 0 0 0-6.4 6.5 20 20 0 0 0-2.3 9.6c0 3.7.7 7 2.3 9.7 1.5 2.8 3.7 5 6.4 6.5 2.7 1.6 5.8 2.3 9.2 2.3a18 18 0 0 0 7.9-1.7c2.4-1.1 4.4-2.9 5.9-5.2l4.8 3.2c-1.9 3-4.4 5.4-7.7 7a24.5 24.5 0 0 1-11 2.4c-4.6 0-8.8-1-12.5-3z" /><path d="M272.5 745.4c-1.2 1-2.7 1.9-4.4 2.5-1.8.5-3.7.8-5.6.8-4.4 0-7.8-1.2-10.2-3.6a13.8 13.8 0 0 1-3.7-10.2v-28.7h-8.4v-5.4h8.4v-10.4h6.4v10.4h14.5v5.4H255v28.3c0 2.9.7 5 2.2 6.5 1.4 1.5 3.4 2.2 6 2.2 1.4 0 2.7-.2 3.9-.6 1.2-.4 2.3-1 3.2-1.8z" /><path d="M309.6 702.9c3-1.6 6.6-2.5 11-2.5v6.3l-1.5-.1c-5 0-9 1.5-11.7 4.6-2.9 3-4.3 7.3-4.3 12.9v24.1h-6.4v-47.4h6.2v9.3c1.5-3.2 3.7-5.6 6.7-7.2z" /><path d="M344.6 689.1c-.9-1-1.4-2-1.4-3.2 0-1.3.5-2.3 1.4-3.2.9-.9 2-1.4 3.3-1.4a4.6 4.6 0 0 1 4.7 4.5 4.6 4.6 0 0 1-4.7 4.7c-1.3 0-2.4-.5-3.3-1.4zm0 11.7h6.5v47.5h-6.4z" /><path d="M388.6 745.6c-3.7-2-6.6-4.9-8.8-8.6a24.8 24.8 0 0 1-3.1-12.5c0-4.6 1-8.7 3.1-12.4 2.2-3.7 5-6.5 8.8-8.6 3.7-2 7.8-3 12.5-3 4.1 0 7.8.8 11 2.3 3.2 1.6 5.8 4 7.6 7l-4.8 3.3a15 15 0 0 0-5.9-5.3c-2.4-1.1-5-1.7-7.8-1.7-3.5 0-6.5.7-9.3 2.3a16 16 0 0 0-6.4 6.5 20 20 0 0 0-2.3 9.6c0 3.7.8 7 2.3 9.7 1.6 2.8 3.7 5 6.4 6.5 2.8 1.6 5.8 2.3 9.3 2.3a18 18 0 0 0 7.8-1.7c2.4-1.1 4.4-2.9 6-5.2l4.7 3.2c-1.8 3-4.4 5.4-7.6 7a24.5 24.5 0 0 1-11 2.4c-4.7 0-8.8-1-12.5-3z" /><path d="M475.6 705.1c3.3 3.1 5 7.7 5 13.7v29.4h-6.2V741a14.8 14.8 0 0 1-6.3 5.7c-2.8 1.4-6.1 2.1-10 2.1-5.3 0-9.5-1.2-12.6-3.8a12.2 12.2 0 0 1-4.7-10 12 12 0 0 1 4.4-9.7c2.9-2.5 7.5-3.7 14-3.7h15v-2.9c0-4-1.2-7.2-3.4-9.3-2.3-2.1-5.7-3.2-10-3.2a25.2 25.2 0 0 0-15.8 5.6l-2.9-4.8c2.4-2 5.3-3.6 8.7-4.8 3.3-1 6.9-1.6 10.6-1.6 6.2 0 11 1.5 14.3 4.6zm-7.2 36c2.6-1.6 4.5-4 5.8-7.1v-7.8h-14.9c-8 0-12.1 2.9-12.1 8.5 0 2.8 1 5 3.1 6.6 2.1 1.6 5 2.3 8.9 2.3 3.7 0 6.7-.8 9.2-2.4z" /><path d="M510.5 681.3h6.4v67h-6.4z" /><path d="M585.1 747a23.5 23.5 0 0 1-8.2-4.1l2.9-5.1a30.1 30.1 0 0 0 16.8 5.3c4.4 0 7.5-.7 9.6-2 2.1-1.4 3.1-3.3 3.1-5.8 0-1.7-.5-3-1.7-4-1.1-1-2.6-1.8-4.3-2.3-1.8-.5-4-1-7-1.5a81 81 0 0 1-9.3-2.2c-2.3-.8-4.3-2-6-3.8a10.6 10.6 0 0 1-2.4-7.5c0-4 1.6-7.2 5-9.7 3.2-2.6 7.8-3.8 13.7-3.8 3 0 6.1.4 9.2 1.2a25 25 0 0 1 7.6 3.2l-2.8 5.1a24 24 0 0 0-14-4c-4 0-7.2.7-9.2 2.1a6.6 6.6 0 0 0-3.1 5.7c0 1.8.6 3.3 1.7 4.3 1.2 1.1 2.7 2 4.4 2.4 1.7.5 4.1 1 7.2 1.6a84 84 0 0 1 9.1 2.2c2.3.7 4.3 2 5.9 3.7 1.6 1.7 2.4 4.1 2.4 7.2 0 4.1-1.7 7.4-5.1 9.9a24.6 24.6 0 0 1-14.4 3.6 36 36 0 0 1-11-1.7z" /><path d="M681.4 726.5h-39.7c.4 5 2.3 9 5.7 12 3.4 3 7.7 4.5 13 4.5 3 0 5.6-.5 8-1.6 2.5-1 4.7-2.5 6.5-4.6l3.6 4.1a20.5 20.5 0 0 1-7.9 5.8c-3.2 1.3-6.6 2-10.4 2-4.9 0-9.2-1-13-3.1-3.7-2-6.6-5-8.7-8.6a24.6 24.6 0 0 1-3.2-12.5c0-4.6 1-8.7 3-12.4a22 22 0 0 1 8.3-8.6c3.5-2 7.5-3 11.9-3a21.7 21.7 0 0 1 20 11.6c2 3.6 3 7.7 3 12.4l-.1 2zM647 710.3a17 17 0 0 0-5.3 11.5h33.7c-.5-4.7-2.2-8.5-5.3-11.5-3.1-2.9-7-4.3-11.6-4.3a16 16 0 0 0-11.5 4.3z" /><path d="M720 702.9c3-1.6 6.6-2.5 11-2.5v6.3l-1.5-.1c-5 0-9 1.5-11.8 4.6-2.8 3-4.2 7.3-4.2 12.9v24.1H707v-47.4h6.1v9.3c1.5-3.2 3.8-5.6 6.8-7.2z" /><path d="m797 700.8-21 47.5h-6.7l-21-47.5h6.7l17.7 40.4 18-40.4z" /><path d="M818.5 689.1c-1-1-1.4-2-1.4-3.2 0-1.3.4-2.3 1.4-3.2.9-.9 2-1.4 3.3-1.4a4.6 4.6 0 0 1 4.7 4.5c0 1.3-.5 2.4-1.4 3.3-.9.9-2 1.4-3.3 1.4-1.3 0-2.4-.5-3.3-1.4zm0 11.7h6.5v47.5h-6.4z" /><path d="M862.4 745.6c-3.7-2-6.6-4.9-8.7-8.6a24.8 24.8 0 0 1-3.2-12.5c0-4.6 1-8.7 3.2-12.4 2.1-3.7 5-6.5 8.7-8.6 3.7-2 7.9-3 12.6-3 4 0 7.7.8 11 2.3 3.2 1.6 5.7 4 7.6 7l-4.8 3.3a15 15 0 0 0-6-5.3c-2.3-1.1-5-1.7-7.8-1.7-3.4 0-6.5.7-9.2 2.3a16 16 0 0 0-6.4 6.5 20 20 0 0 0-2.3 9.6c0 3.7.7 7 2.3 9.7 1.5 2.8 3.7 5 6.4 6.5 2.7 1.6 5.8 2.3 9.2 2.3a18 18 0 0 0 7.9-1.7c2.4-1.1 4.3-2.9 5.9-5.2l4.8 3.2c-1.9 3-4.4 5.4-7.7 7a24.5 24.5 0 0 1-11 2.4c-4.6 0-8.8-1-12.5-3z" /><path d="M959.1 726.5h-39.6c.3 5 2.2 9 5.6 12 3.4 3 7.8 4.5 13 4.5 3 0 5.7-.5 8.1-1.6 2.5-1 4.6-2.5 6.4-4.6l3.6 4.1a20.5 20.5 0 0 1-7.9 5.8c-3.1 1.3-6.6 2-10.4 2-4.8 0-9.1-1-12.9-3.1-3.8-2-6.7-5-8.8-8.6a24.6 24.6 0 0 1-3.2-12.5c0-4.6 1-8.7 3-12.4a22 22 0 0 1 8.4-8.6c3.5-2 7.4-3 11.8-3s8.3 1 11.8 3 6.3 5 8.2 8.5c2 3.7 3 7.8 3 12.5v2zm-34.4-16.2a17 17 0 0 0-5.2 11.5H953c-.4-4.7-2.2-8.5-5.3-11.5-3-2.9-7-4.3-11.5-4.3a16 16 0 0 0-11.5 4.3z" /><path d="M986.5 747a23.5 23.5 0 0 1-8.2-4.1l2.9-5.1c2 1.6 4.4 2.8 7.4 3.8s6.2 1.5 9.4 1.5c4.3 0 7.5-.7 9.6-2 2-1.4 3.1-3.3 3.1-5.8 0-1.7-.6-3-1.7-4-1.2-1-2.6-1.8-4.4-2.3-1.7-.5-4-1-6.9-1.5a81 81 0 0 1-9.3-2.2c-2.3-.8-4.3-2-6-3.8a10.6 10.6 0 0 1-2.5-7.5c0-4 1.7-7.2 5-9.7 3.3-2.6 7.9-3.8 13.8-3.8 3 0 6.1.4 9.2 1.2a25 25 0 0 1 7.6 3.2l-2.8 5.1a24 24 0 0 0-14-4c-4.1 0-7.2.7-9.3 2.1a6.6 6.6 0 0 0-3 5.7c0 1.8.5 3.3 1.7 4.3 1.2 1.1 2.6 2 4.4 2.4 1.7.5 4.1 1 7.2 1.6a84 84 0 0 1 9.1 2.2c2.3.7 4.3 2 5.9 3.7 1.6 1.7 2.4 4.1 2.4 7.2 0 4.1-1.7 7.4-5.2 9.9a24.6 24.6 0 0 1-14.3 3.6 36 36 0 0 1-11.1-1.7z" /></g></g></svg>