<svg xmlns="http://www.w3.org/2000/svg" width="1024" height="576" viewBox="0 0 1024 576"><path fill="#3c516f" d="M0 0h1024v576H0z"/><g fill="#f18549"><g id="logo-subtitle"><path d="M383 366.6h-20.9a9 9 0 0 0 3 6.3 10 10 0 0 0 6.9 2.4c1.5 0 3-.2 4.3-.8a9.4 9.4 0 0 0 3.3-2.4l2 2.1a10.7 10.7 0 0 1-4.2 3 14 14 0 0 1-5.5 1.1 14 14 0 0 1-6.8-1.6c-2-1.1-3.6-2.6-4.7-4.5a13 13 0 0 1-1.7-6.6c0-2.5.6-4.6 1.6-6.6 1.1-2 2.6-3.4 4.4-4.5 1.9-1 4-1.6 6.3-1.6s4.4.5 6.2 1.6c1.9 1 3.3 2.6 4.3 4.5 1 2 1.6 4.1 1.6 6.6zm-18-8.5a9 9 0 0 0-2.9 6H380a9 9 0 0 0-2.8-6 8.6 8.6 0 0 0-6.1-2.3c-2.5 0-4.5.8-6 2.3z"/><path d="M396.6 342.8h3.4V378h-3.4z"/><path d="M437.8 366.6H417a9 9 0 0 0 3 6.3 10 10 0 0 0 6.9 2.4c1.5 0 3-.2 4.2-.8a9.4 9.4 0 0 0 3.4-2.4l2 2.1a10.7 10.7 0 0 1-4.2 3 14 14 0 0 1-5.5 1.1 14 14 0 0 1-6.9-1.6c-2-1.1-3.5-2.6-4.6-4.5a13 13 0 0 1-1.7-6.6c0-2.5.6-4.6 1.6-6.6s2.5-3.4 4.4-4.5c1.9-1 4-1.6 6.3-1.6s4.3.5 6.2 1.6c1.8 1 3.3 2.6 4.3 4.5 1 2 1.6 4.1 1.6 6.6zm-18.1-8.5a9 9 0 0 0-2.8 6h17.8a9 9 0 0 0-2.8-6 8.6 8.6 0 0 0-6.1-2.3c-2.5 0-4.5.8-6.1 2.3z"/><path d="M455.1 376.7c-2-1-3.5-2.6-4.6-4.5-1-2-1.6-4.2-1.6-6.6 0-2.5.5-4.6 1.6-6.6s2.7-3.4 4.6-4.5c2-1 4.2-1.6 6.7-1.6 2.1 0 4 .4 5.8 1.2 1.7.9 3 2.1 4 3.7l-2.5 1.7a7.8 7.8 0 0 0-3.2-2.7 9.8 9.8 0 0 0-9 .3c-1.4.8-2.6 2-3.4 3.4-.8 1.5-1.2 3.2-1.2 5 0 2 .4 3.7 1.2 5.2.8 1.5 2 2.6 3.4 3.4 1.4.8 3 1.2 4.9 1.2 1.5 0 2.8-.3 4.1-.9a7.7 7.7 0 0 0 3.2-2.7l2.5 1.7a9.6 9.6 0 0 1-4 3.7c-1.8.8-3.7 1.2-5.8 1.2-2.5 0-4.7-.5-6.7-1.6z"/><path d="M498.3 376.6c-.7.6-1.4 1-2.4 1.3-1 .3-1.9.4-3 .4-2.3 0-4-.6-5.3-1.9-1.3-1.2-2-3-2-5.3v-15.2h-4.4v-2.8h4.5v-5.5h3.3v5.5h7.7v2.8H489v15c0 1.5.4 2.6 1.2 3.4.7.7 1.8 1.1 3.2 1.1.7 0 1.3 0 2-.3a5 5 0 0 0 1.7-1z"/><path d="M517.8 354.2a12 12 0 0 1 5.8-1.3v3.3h-.8a8 8 0 0 0-6.2 2.3 9.7 9.7 0 0 0-2.2 6.8v12.8H511v-25h3.3v4.9c.8-1.7 2-3 3.5-3.8z"/><path d="M536.3 346.9c-.5-.5-.7-1-.7-1.7s.2-1.2.7-1.7c.5-.5 1-.7 1.8-.7.7 0 1.2.2 1.7.7.5.4.7 1 .7 1.6 0 .7-.2 1.3-.7 1.8-.5.5-1 .7-1.7.7s-1.3-.2-1.8-.7zm0 6.2h3.4v25h-3.4z"/><path d="M559.5 376.7c-2-1-3.5-2.6-4.6-4.5-1.1-2-1.7-4.2-1.7-6.6 0-2.5.6-4.6 1.7-6.6s2.7-3.4 4.6-4.5c2-1 4.2-1.6 6.6-1.6 2.2 0 4.1.4 5.8 1.2 1.7.9 3 2.1 4 3.7l-2.5 1.7a7.8 7.8 0 0 0-3.1-2.7 9.8 9.8 0 0 0-9 .3c-1.5.8-2.6 2-3.4 3.4-.8 1.5-1.2 3.2-1.2 5 0 2 .4 3.7 1.2 5.2.8 1.5 2 2.6 3.4 3.4 1.4.8 3 1.2 4.8 1.2 1.5 0 3-.3 4.2-.9a7.7 7.7 0 0 0 3.1-2.7l2.5 1.7a9.6 9.6 0 0 1-4 3.7c-1.7.8-3.6 1.2-5.8 1.2-2.4 0-4.6-.5-6.6-1.6z"/><path d="M605.5 355.3c1.7 1.7 2.6 4 2.6 7.3V378h-3.3v-3.9a7.7 7.7 0 0 1-3.3 3c-1.5.8-3.2 1.1-5.3 1.1-2.8 0-5-.6-6.6-2a6.4 6.4 0 0 1-2.5-5.2c0-2.2.8-3.9 2.3-5.2 1.5-1.3 4-2 7.3-2h8v-1.5c0-2.1-.6-3.8-1.8-4.9-1.2-1.1-3-1.7-5.3-1.7-1.6 0-3.1.3-4.6.8-1.4.5-2.7 1.3-3.7 2.2l-1.6-2.5c1.3-1.1 2.8-2 4.6-2.5 1.8-.6 3.7-1 5.6-1 3.3 0 5.8.9 7.6 2.5zm-3.9 19a7.8 7.8 0 0 0 3-3.7v-4.1h-7.8c-4.2 0-6.4 1.5-6.4 4.5 0 1.4.6 2.6 1.7 3.4 1 .9 2.6 1.3 4.6 1.3 2 0 3.6-.5 5-1.3z"/><path d="M623.9 342.8h3.3V378H624z"/><path d="M663.3 377.5c-1.9-.6-3.4-1.4-4.4-2.3l1.5-2.6a15.7 15.7 0 0 0 8.9 2.8c2.3 0 4-.4 5-1 1.2-.8 1.7-1.8 1.7-3.1 0-1-.3-1.6-.9-2.2-.6-.5-1.3-.9-2.3-1.2l-3.6-.7-5-1.2c-1.2-.4-2.2-1-3-2-1-1-1.4-2.3-1.4-4 0-2 .9-3.8 2.6-5.1 1.8-1.4 4.2-2 7.3-2 1.6 0 3.2.2 4.9.6 1.6.5 3 1 4 1.7L677 358c-2-1.4-4.5-2.1-7.4-2.1-2.2 0-3.8.4-4.9 1.1-1 .8-1.6 1.8-1.6 3a3 3 0 0 0 1 2.3c.5.6 1.3 1 2.2 1.3l3.8.8 4.8 1.1c1.2.4 2.3 1 3.1 2 .9 1 1.3 2.2 1.3 3.8 0 2.2-1 4-2.7 5.2a13 13 0 0 1-7.6 2c-2 0-4-.4-5.8-1z"/><path d="M714 366.6h-20.9a9 9 0 0 0 3 6.3 10 10 0 0 0 6.9 2.4c1.5 0 3-.2 4.3-.8a9.4 9.4 0 0 0 3.3-2.4l2 2.1a10.7 10.7 0 0 1-4.2 3 14 14 0 0 1-5.5 1.1 14 14 0 0 1-6.9-1.6c-2-1.1-3.5-2.6-4.6-4.5a13 13 0 0 1-1.7-6.6c0-2.5.6-4.6 1.6-6.6s2.6-3.4 4.4-4.5c1.9-1 4-1.6 6.3-1.6s4.4.5 6.2 1.6c1.8 1 3.3 2.6 4.3 4.5 1 2 1.6 4.1 1.6 6.6zm-18.1-8.5a9 9 0 0 0-2.8 6H711a9 9 0 0 0-2.8-6 8.6 8.6 0 0 0-6.1-2.3c-2.5 0-4.5.8-6.1 2.3z"/><path d="M734.4 354.2a12 12 0 0 1 5.8-1.3v3.3h-.8a8 8 0 0 0-6.2 2.3 9.7 9.7 0 0 0-2.2 6.8v12.8h-3.4v-25h3.3v4.9c.8-1.7 2-3 3.5-3.8z"/><path d="m775 353-11 25.1h-3.5l-11.1-25h3.5l9.4 21.3 9.4-21.3z"/><path d="M786.4 346.9c-.5-.5-.7-1-.7-1.7s.2-1.2.7-1.7c.5-.5 1-.7 1.8-.7.7 0 1.2.2 1.7.7.5.4.7 1 .7 1.6 0 .7-.2 1.3-.7 1.8-.5.5-1 .7-1.7.7s-1.3-.2-1.8-.7zm0 6.2h3.4v25h-3.4z"/><path d="M809.6 376.7c-2-1-3.5-2.6-4.6-4.5-1.1-2-1.7-4.2-1.7-6.6 0-2.5.6-4.6 1.7-6.6s2.6-3.4 4.6-4.5c2-1 4.2-1.6 6.6-1.6 2.2 0 4.1.4 5.8 1.2 1.7.9 3 2.1 4 3.7l-2.5 1.7a7.8 7.8 0 0 0-3.1-2.7 9.8 9.8 0 0 0-9 .3c-1.5.8-2.6 2-3.4 3.4-.8 1.5-1.2 3.2-1.2 5 0 2 .4 3.7 1.2 5.2.8 1.5 2 2.6 3.4 3.4 1.4.8 3 1.2 4.8 1.2 1.5 0 2.9-.3 4.2-.9a7.7 7.7 0 0 0 3.1-2.7l2.5 1.7a9.6 9.6 0 0 1-4 3.7c-1.7.8-3.6 1.2-5.8 1.2-2.4 0-4.7-.5-6.6-1.6z"/><path d="M860.6 366.6h-20.9a9 9 0 0 0 3 6.3 10 10 0 0 0 6.9 2.4c1.5 0 3-.2 4.2-.8a9.4 9.4 0 0 0 3.4-2.4l2 2.1a10.7 10.7 0 0 1-4.2 3 14 14 0 0 1-5.5 1.1 14 14 0 0 1-6.9-1.6c-2-1.1-3.5-2.6-4.6-4.5a13 13 0 0 1-1.7-6.6c0-2.5.6-4.6 1.6-6.6s2.5-3.4 4.4-4.5c1.8-1 4-1.6 6.3-1.6s4.3.5 6.2 1.6c1.8 1 3.3 2.6 4.3 4.5 1 2 1.6 4.1 1.6 6.6zm-18.1-8.5a9 9 0 0 0-2.8 6h17.8a9 9 0 0 0-2.8-6 8.6 8.6 0 0 0-6.1-2.3c-2.5 0-4.5.8-6.1 2.3z"/><path d="M875 377.5c-1.8-.6-3.2-1.4-4.3-2.3l1.6-2.6a15.7 15.7 0 0 0 8.9 2.8c2.2 0 4-.4 5-1 1.1-.8 1.7-1.8 1.7-3.1 0-1-.3-1.6-1-2.2-.5-.5-1.3-.9-2.2-1.2l-3.7-.7c-2-.4-3.7-.8-4.9-1.2-1.2-.4-2.3-1-3.2-2-.8-1-1.3-2.3-1.3-4 0-2 .9-3.8 2.7-5.1 1.7-1.4 4.1-2 7.2-2 1.7 0 3.3.2 4.9.6 1.6.5 3 1 4 1.7l-1.5 2.7c-2-1.4-4.5-2.1-7.4-2.1-2.1 0-3.8.4-4.8 1.1-1.1.8-1.7 1.8-1.7 3a3 3 0 0 0 1 2.3c.6.6 1.3 1 2.2 1.3l3.9.8 4.8 1.1c1.2.4 2.2 1 3 2 1 1 1.3 2.2 1.3 3.8 0 2.2-.9 4-2.7 5.2a13 13 0 0 1-7.6 2c-2 0-4-.4-5.8-1z"/></g><g id="logo-title"><path d="M355.6 273.5a41 41 0 0 1 74.1-23.4c.4.6.4 1.5-.1 2l-7.7 6.1c-.8.5-1.7.3-2.1-.4-5-8-13.7-12.8-23.3-12.8-15.4 0-27.9 13.2-27.9 28.5v.1a28.5 28.5 0 0 0 28 28.8c10.5 0 19.2-5.1 23.9-12.8.5-.6 1.3-1 2.1-.3l7.7 5.8c1 .7.6 1.5.4 2a41.6 41.6 0 0 1-34.2 17.4c-22.4 0-41-18.4-41-41z"/><path d="M446.2 280.5v-29l-.1-15.6c0-1 .7-1.3 1.5-1.3h10.3c.8 0 1.5.4 1.5 1.3l-.1 15.6v29.3c0 12.5 7.8 21.7 21.5 21.7s21.5-9.2 21.5-21.7v-29.3l-.2-15.6c0-1 .7-1.3 1.5-1.3h10.5c.7 0 1.3.4 1.3 1.3l-.1 15.6v29.1c0 18-11.4 33.9-34.5 33.9s-34.6-15.9-34.6-34zm45.8-70.8-14.7 7.3c-3.5 1.7-5 2.8-6.4 3.3-.6.3-1.2-.1-1.3-.4l-3.8-7.8c-.2-.2-.2-.8.4-1l6.8-3.1 15-7.4 5.4-2.7c.8-.4 1 0 1.2.3l3.9 7.6c.1.4.1 1-.4 1.2-.8.4-2.7 1-6 2.7z"/><path d="M617.1 274a41 41 0 0 1-41 40.6c-9.2 0-18.6-3.5-26.1-10.2v3.1c0 10.5-.2 23.6-.3 28 0 .7-.6 1.4-1.4 1.4h-9.7c-.8 0-1.5-.7-1.5-1.5l-.2-28.3v-53.9l-.2-17c0-.8.6-1.4 1.3-1.4h10.6c.8 0 1.4.6 1.4 1.4v7c7.8-6.9 17.2-10.1 26-10.1a41.2 41.2 0 0 1 41.1 41zm-66.6-7v13.5c0 8.7 10.3 21.8 26 21.8 15.8 0 28.1-13.2 28.1-28.5a28.9 28.9 0 0 0-28-29c-15.6 0-26.1 13.3-26.1 22.3z"/><path d="m635.1 312.8.1-15.3v-43.8l-.2-16.2c0-.9.5-1.5 1.4-1.5h9.4c1 0 1.5.6 1.5 1.5v7.5c4.9-6.3 13-10.1 20-10.1 4.7 0 8.2.5 11.5 1.7 1 .5 1 1.1.9 1.7l-2.3 8.7c-.1 1-1 1.3-1.6 1-2.6-1-5.1-1.3-7.7-1.3-11.1 0-19.8 8.9-19.8 21.4v44.7c0 1-.6 1.4-1.4 1.4h-10.5c-.6 0-1.3-.5-1.3-1.4z"/><path d="M692 219.1c0-4.1 3-6.8 8.1-6.8 4.9 0 8 2.7 8 6.8 0 4.2-3.1 6.7-8 6.7-5 0-8.2-2.6-8.2-6.7zm1.4 94 .1-15.1V237.6c0-.9.6-1.3 1.4-1.3h10.3c.8 0 1.5.4 1.5 1.3l-.1 15.2V298l.1 15.2c0 .9-.7 1.3-1.5 1.3H695c-.8 0-1.5-.4-1.5-1.3z"/><path d="M726.7 273.5a41 41 0 0 1 74.2-23.4c.4.6.4 1.5-.1 2l-7.7 6.1c-.8.5-1.8.3-2.2-.4-5-8-13.7-12.8-23.2-12.8-15.4 0-28 13.2-28 28.5v.1a28.5 28.5 0 0 0 28 28.8c10.6 0 19.2-5.1 24-12.8.5-.6 1.3-1 2-.3l7.7 5.8c1 .7.7 1.5.4 2a41.6 41.6 0 0 1-34 17.4c-22.5 0-41-18.4-41-41z"/><path d="M814.2 273.5a40.9 40.9 0 0 1 81.8 0c0 22.3-18.4 41-40.8 41-22.5 0-41-18.4-41-41zm68.8 0a28.3 28.3 0 0 0-27.8-28.5c-15.6 0-28 13.2-28 28.5v.2a28.4 28.4 0 0 0 28 28.7 28.4 28.4 0 0 0 27.8-28.9z"/></g><g id="logo-icon"><path d="M300.6 197.7V227H175.7l14 29.9h-34L128 197.7Z"/><path d="M128.8 346.7h173.4V376H128.8z"/><path d="M141.8 272.2h133.3v29.3H141.8z"/></g></g></svg>