<svg xmlns="http://www.w3.org/2000/svg" width="1024" height="1024" viewBox="0 0 1024 1024"><path fill="#3c516f" d="M0 0h1024v1024H0z"/><g fill="#f18549"><path d="M400 266.2h221.9v37.7H461.4l18 38.4h-43.9Z"/><path d="M401 457.8h223v37.7H401z"/><path d="M417.7 362h171.4v37.7H417.7z"/><path d="M128 667.8a58.2 58.2 0 0 1 105.4-33.2c.5.8.5 2.1-.2 2.7l-11 8.8c-1 .7-2.4.4-3-.6a38.8 38.8 0 0 0-33-18.1c-22 0-39.7 18.7-39.7 40.4v.2a40.5 40.5 0 0 0 39.7 40.9 39 39 0 0 0 34-18.2c.8-1 1.9-1.3 3-.3l11 8.2c1.3 1 .9 2 .5 2.8a59 59 0 0 1-48.5 24.7 58.4 58.4 0 0 1-58.2-58.2z"/><path d="M256.9 677.8v-41.3l-.2-22.1c0-1.4 1-2 2-2h14.8c1.1 0 2 .6 2 2l-.1 22.1v41.6c0 17.8 11 31 30.5 31s30.6-13.2 30.6-31v-41.6l-.2-22.1c0-1.4 1-2 2-2h15c1 0 1.9.6 1.9 2l-.2 22.1V678c0 25.5-16.2 48-49 48-32.9 0-49.1-22.5-49.1-48.2zm65-100.7-21 10.4c-5 2.4-7 4-9 4.7-.9.4-1.6-.2-1.8-.5l-5.4-11.1c-.3-.4-.3-1.2.6-1.5 1.7-1 4.4-2 9.6-4.4l21.3-10.5 7.7-3.9c1.1-.5 1.5 0 1.7.4l5.5 10.9c.2.6.2 1.3-.6 1.7-1.1.6-3.8 1.4-8.5 3.8z"/><path d="M499.7 668.6a58.2 58.2 0 0 1-58.4 57.6 56 56 0 0 1-37-14.5v4.4c0 15-.3 33.5-.3 39.7 0 1.1-1 2-2.1 2H388c-1.1 0-2-.9-2-2-.1-6.2-.3-24.9-.3-40.3V639c0-9.6-.4-17.6-.4-24.3 0-1 .8-1.9 1.9-1.9h15c1.1 0 2 .9 2 2v10c11-9.9 24.4-14.5 37-14.5 32 0 58.4 26.2 58.4 58.3zm-94.7-10v19.1c0 12.5 14.7 31 37 31a40.4 40.4 0 0 0 40-40.5 41 41 0 0 0-40-41c-22.1 0-37 18.7-37 31.5z"/><path d="m525.3 723.7.2-21.8v-62.2c0-10.5-.4-17-.4-23.1 0-1.2.7-2.1 2-2.1h13.4c1.4 0 2.1 1 2.1 2v10.8c7-9 18.4-14.4 28.5-14.4 6.7 0 11.6.8 16.2 2.5 1.5.6 1.5 1.5 1.3 2.3l-3.2 12.4c-.2 1.4-1.3 2-2.3 1.6-3.6-1.6-7.2-2-10.9-2-15.8 0-28.2 12.6-28.2 30.4v41.8l.2 21.8c0 1.3-1 1.9-2.1 1.9h-15c-.9 0-1.9-.6-1.9-2z"/><path d="M606 590.5c0-5.9 4.4-9.7 11.7-9.7 6.8 0 11.4 3.8 11.4 9.7 0 6-4.6 9.6-11.4 9.6-7.3 0-11.7-3.9-11.7-9.6zm2.1 133.6.2-21.5v-64.2l-.2-21.6c0-1.3 1-1.9 2.1-1.9H625c1.2 0 2.1.6 2.1 2l-.2 21.5v64.2l.2 21.5c0 1.4-1 2-2 2h-14.8c-1.1 0-2-.6-2-2z"/><path d="M655.5 667.8a58.2 58.2 0 0 1 105.3-33.2c.6.8.6 2.1-.2 2.7l-10.8 8.8c-1.2.7-2.5.4-3-.6a38.8 38.8 0 0 0-33.1-18.1c-22 0-39.7 18.7-39.7 40.4v.2a40.5 40.5 0 0 0 39.7 40.9 39 39 0 0 0 34-18.2c.7-1 1.9-1.3 3-.3l10.9 8.2c1.3 1 1 2 .6 2.8a59 59 0 0 1-48.5 24.7 58.4 58.4 0 0 1-58.2-58.2z"/><path d="M779.8 667.8a58 58 0 0 1 116.2 0 58.5 58.5 0 0 1-58 58.2 58.4 58.4 0 0 1-58.2-58.2zm97.7 0a40.2 40.2 0 0 0-39.5-40.5 40.3 40.3 0 0 0-39.7 40.5v.2A40.4 40.4 0 0 0 838 709a40.3 40.3 0 0 0 39.5-41z"/></g></svg>