<svg xmlns="http://www.w3.org/2000/svg" width="1220" height="1220" viewBox="0 0 12200 12200"><g fill="#011E41"><path d="M5835 11913c-27-4-48-31-205-268-96-145-178-261-181-257-4 4-14 97-23 207s-19 217-22 238l-6 38-46-3c-35-2-47-7-45-18l29-337 28-323h76l182 273 182 272 23-249 25-252c2-1 24 0 50 3 44 5 47 7 43 32-3 14-16 161-30 326-27 309-29 326-42 323l-38-5zM6300 11914c0-26 235-682 248-691 9-7 32-13 51-13h36l180 316c99 173 182 319 183 325 2 5-19 9-47 9-49 0-51-1-77-47l-45-78-18-31-178 18-180 17-29 85c-29 89-36 96-96 96-16 0-28-3-28-6zm355-275c60-5 111-11 112-13 2-2-160-292-169-301-3-4-30 65-58 152l-57 170c-3 8 5 11 29 8l143-16zM7465 11707c-46-21-93-65-120-111-21-37-152-465-143-470 15-10 84-24 89-18 4 4 30 93 59 197 29 105 64 211 78 238 43 81 114 109 207 82 102-29 153-100 142-194-3-25-29-127-57-226l-53-194c-3-19 82-46 88-28 35 95 115 421 115 465 0 114-48 190-148 238-69 33-206 44-257 21zM4185 11576c-58-14-346-124-359-136-5-6 40-136 109-317l121-312c7-9 338 124 374 150 48 35 80 80 87 124 12 73-50 168-118 182l-28 5 29 37c16 20 32 52 35 72 15 83-41 176-120 198-48 13-66 13-130-3zm126-105c23-24 29-38 29-75 0-40-4-48-38-77-31-26-280-135-288-126-6 6-74 191-74 201 0 6 55 32 123 58 152 58 204 62 248 19zm76-293c47-44 36-124-21-161-36-24-226-99-239-94-6 2-28 46-48 98l-37 94 32 14c17 8 74 29 126 48 105 37 148 37 187 1zM8381 11125c-68-146-128-265-133-265-4 0-52 20-105 45l-99 45c-5 0-35-72-32-76 5-5 472-224 488-229 11-4 22 6 33 30l17 36-103 50c-56 28-101 56-99 62 2 7 57 126 123 265 65 138 119 254 119 257 0 4-76 45-82 45-2-1-59-120-127-265zM6529 11143c6-10 32-42 59-70 47-51 51-53 100-53h52l-73 70c-63 61-77 69-110 70-33 0-36-2-28-17zM3179 11105a362 362 0 0 1-197-174c-20-48-18-136 4-191 16-39 213-370 234-394 9-9 80 30 80 44 0 5-52 93-115 195-117 191-136 240-120 302 24 96 165 169 258 134 45-17 91-75 201-254 60-97 111-177 113-177 4 0 49 29 72 46 6 5-209 351-245 392a264 264 0 0 1-285 77zM8946 10770c-128-202-175-284-168-293 6-7 23-20 39-29l29-17 181 287 182 286-34 23c-19 13-38 23-43 23-4 0-88-126-186-280zM2410 10555l-174-155-29-29 218-248c120-136 223-249 229-251 7-1 24 11 40 27l29 30-28 33-189 216c-89 101-162 187-164 191-2 5 52 57 120 117l136 119c9 8 6 18-15 43l-28 33-145-126zM9500 10615a383 383 0 0 1-226-243c-59-200 108-430 327-449 57-6 59-5 59 18 0 57-9 66-66 72-168 17-283 207-219 360 35 85 124 153 213 164 126 15 269-89 289-209 5-37 6-38 49-38 40 0 44 2 44 25 0 91-103 226-214 280-71 35-184 44-256 20zM5959 9873l-145-728-54-8c-498-71-893-217-1275-472a2528 2528 0 0 1-456-374 2628 2628 0 0 1-326-381 2997 2997 0 0 1-478-1091c-29-142-55-319-46-319 8 0 565 112 568 114l28 119a2406 2406 0 0 0 1875 1823l47 6-111-558c-93-464-115-559-128-556-9 1-192 54-408 118-216 63-397 113-401 112-5-2 322-334 726-738l735-735v2198c0 1208-1 2197-3 2197-1 0-68-327-148-727zM1893 9991a387 387 0 0 1-237-246c-23-71-18-170 12-237 29-65 100-139 169-174 51-26 68-29 148-29 79 0 97 4 148 28a392 392 0 0 1 214 302c6 64 5 65-18 65-57 0-69-10-69-54 0-95-89-207-190-241a262 262 0 0 0-311 136c-72 143 15 328 175 371 40 11 46 15 46 39 0 36-9 59-24 59-6-1-34-9-63-19zM10171 9955c-72-20-110-45-170-110-61-67-86-134-85-230 0-177 156-346 333-362 165-15 323 98 366 262 30 115-4 231-96 329a345 345 0 0 1-348 111zm193-100c20-9 55-32 78-53a261 261 0 0 0-172-456c-47 0-76 6-107 22-203 105-209 378-11 476 61 31 154 35 212 11z"/><path d="M4665 9750c-70-15-115-72-115-144 0-23 32-115 86-246l86-209 57 26c31 13 91 39 134 55 42 17 77 35 77 40 0 14-161 401-175 421-31 44-95 69-150 57zM7479 9747c-20-4-48-20-62-35-19-21-197-422-197-445 0-2 28-15 63-27 34-13 95-38 135-56l72-33 16 37c97 231 156 377 160 401 8 37-26 114-60 136-36 24-85 33-127 22zM6420 9122c0-15 88-470 104-537 4-16 22-23 95-38a2388 2388 0 0 0 1646-1292c85-173 123-276 171-465 35-138 40-170 26-170-15 0-1105 220-1109 224-2 2 50 188 117 413 66 226 120 414 120 418 0 3-331-327-736-734l-736-741-2217-2-2216-3 744-150 745-150 22-140c51-329 138-598 292-900 133-260 293-483 497-694a2965 2965 0 0 1 1764-887c59-6 63-6 58 12l-58 284c-29 146-57 268-62 271-5 4-48 14-96 24-211 41-513 163-720 289a2429 2429 0 0 0-1050 1342c-24 82-71 277-67 281 3 4 1110-218 1115-223 4-4-12-62-143-508l-94-318 137 133 739 734 602 600 1-2210c0-1216 4-2201 8-2190s73 346 152 744 149 725 154 726c6 2 73 13 150 24a2954 2954 0 0 1 2470 2557l7 52-74-14-288-57-215-43-23-104a2426 2426 0 0 0-1359-1664c-162-71-384-141-519-162l-41-6 109 548 113 560c2 7 148-31 407-107 222-65 407-119 413-119 5 0-321 331-725 735l-735 735 2205 2 2205 3-690 138-736 148-47 10-11 92c-57 450-237 912-504 1297a3078 3078 0 0 1-785 772 2965 2965 0 0 1-1197 463c-128 19-135 19-135-3zM3462 8949c-59-12-112-78-112-139 0-57 28-95 187-253l159-158 106 105 105 104-166 165c-116 115-175 167-196 172l-40 9c-5 1-25-1-43-5zM8684 8950c-46-10-73-33-234-194l-145-146 105-105 105-105 158 157c87 87 165 170 173 185 32 61 7 160-48 189-35 19-80 26-114 19zM1145 8710l-168-72c-11-5 135-358 148-358 6 0 87 32 182 71l172 72-16 41c-74 188-131 311-143 312-8 1-87-29-175-66zM10837 8673c-84-201-100-244-91-252 12-10 329-141 342-141s159 346 150 355c-7 7-339 145-348 145-4 0-28-48-53-107zM441 7918c-11-71-55-263-76-328-5-16-2-20 19-20 19 0 30 11 52 50 20 36 33 50 49 50 25 0 110-51 448-265 138-87 231-152 224-156-14-8-332-51-542-74l-192-20c-45-5-53-4-62 14-6 11-11 32-11 48 0 43-10 71-27 78-9 3-18 4-20 2s-12-53-23-113-29-140-39-176c-17-58-17-67-4-72 25-10 30-7 43 23 25 62 59 81 176 101 94 16 572 83 864 121 173 22 168 36-67 184-256 161-671 441-709 477-27 25-33 40-39 94-6 58-9 64-29 64-21 0-24-7-35-82zM2630 7738a142 142 0 0 1-64-193c9-19 28-42 42-51 43-28 426-184 432-176 10 12 112 263 109 266-21 15-433 176-451 176-13 0-44-10-68-22z"/><path d="m9460 7747-352-145-46-20 54-129 56-136c4-10 417 160 442 182 67 60 59 186-16 235-34 22-98 28-138 13zM11276 7659c-216-53-364-179-428-367-29-86-31-253-4-352a494 494 0 0 1 356-369c67-16 221-13 307 5a551 551 0 0 1 457 554c-2 270-141 478-359 535-82 21-230 18-329-6zm357-171c173-53 265-187 255-373-9-178-111-285-338-357-64-20-96-23-220-23-142 0-146 1-210 31a355 355 0 0 0-218 323c-5 117 19 184 97 261 141 140 426 202 634 138zM210 6402c0-87-3-201-7-251l-6-93 23 4c20 2 26 13 40 70 25 105 6 98 289 97 371-1 658-12 671-25 7-7 16-46 22-88 10-70 13-76 35-76h23v189c0 103 3 216 6 250 7 60 6 61-17 61-22 0-26-7-41-71-10-39-23-78-30-86-11-14-61-15-433-9-231 4-435 9-453 13-39 6-48 22-65 105-11 53-16 64-35 66-22 3-22 3-22-156zM10947 6273c-4-71-9-140-13-154-5-23 2-32 68-83 40-31 146-118 235-194l162-137v-72c1-69 0-73-21-72-13 0-103 8-201 18-123 12-182 21-192 31-8 8-19 46-25 85-11 66-23 88-45 82-6-2-13-65-17-142-4-76-12-177-17-224-16-125-15-141 9-141 15 0 23 14 40 70 22 75 40 100 71 100 36 0 432-31 654-50 245-22 240-20 250-99 13-96 15-102 38-99 21 3 22 10 29 148 3 80 14 222 23 316 19 193 13 252-32 321-69 107-234 143-360 80-59-30-103-78-139-150l-30-56c-2-2-91 76-198 173-208 189-206 185-227 309-10 59-14 67-34 67-21 0-22-4-28-127zm873-363c70-36 100-95 100-197 0-60-14-181-22-188-2-2-84 3-183 11-99 7-195 14-212 14h-33v73c0 82 21 175 51 223 52 85 197 115 299 64zM1246 5778c-10-108-8-105-89-122-95-21-473-89-667-121-180-29-174-31-213 70-17 45-29 61-45 63-28 4-28 2 2-144 13-66 32-177 42-247 16-119 19-128 38-125s21 11 24 78c3 95 8 117 30 129 25 13 881 165 889 157 9-9 73-422 67-438-9-29-52-75-116-124-53-41-59-49-53-73 4-14 8-28 10-30s28 10 57 26a3895 3895 0 0 0 215 117c1 1-20 119-47 261-27 143-58 325-70 405-29 196-28 190-49 190-16 0-19-11-25-72zM2828 5001c-113-47-218-97-232-110-71-67-53-191 34-236 53-28 94-18 308 70 113 47 208 87 209 89 3 3-70 182-100 247l-12 26-207-86zM9134 4986l-57-137-16-35 212-87c122-50 226-87 245-87 42 0 83 21 116 60 45 54 29 166-29 204-19 12-289 128-410 176-18 7-24-3-61-94zM11065 4895a623 623 0 0 1-425-350c-21-44-68-165-104-270-35-104-76-215-90-246-13-31-22-60-19-63 17-17 42 1 78 57 29 46 47 63 65 65 39 5 815-273 849-304 11-10 12-28 5-94-9-75-8-82 9-92 10-5 20-8 21-6a13319 13319 0 0 0 156 438c131 345 146 414 116 530a417 417 0 0 1-240 275 639 639 0 0 1-421 60zm186-154c119-30 206-76 275-145 126-126 128-274 7-558l-45-106-52 18a26459 26459 0 0 0-808 299c-10 9 23 129 62 230 89 227 304 328 561 262zM1481 4721c-12-8-13-19-2-78 8-38 12-77 10-88-3-15-46-38-164-92a9909 9909 0 0 0-673-283c-14 0-36 20-67 65-45 63-70 79-81 52-2-7 19-65 49-128 29-63 75-169 101-236 43-112 49-122 67-113 22 13 23 17 4 95-19 76-19 100-1 118 8 8 84 45 168 82 257 114 661 286 663 283 13-18 165-393 165-408 0-33-16-63-73-138-51-68-54-75-44-102 6-17 14-30 17-30 3 1 56 49 118 108l113 107-124 275c-68 151-146 330-172 398-27 67-51 122-54 122s-12-4-20-9zM3538 3843c-85-87-163-172-172-190a147 147 0 0 1 176-204c22 7 89 67 198 176l165 165-105 105-105 105-157-157zM8411 3894l-105-105 159-159c88-88 175-167 194-176 39-19 99-14 137 11 58 38 82 132 50 193-8 15-86 98-173 184l-158 158-104-106zM10205 3653c-80-123-250-367-353-506-87-117-93-130-79-144 15-15 21-11 77 40 34 32 67 57 74 57 25 0 687-463 736-515l22-23-32-78c-29-73-30-79-14-91 15-11 27 3 107 120 102 150 168 243 315 442l104 140-38 30-101 83c-52 44-67 51-79 42-21-18-18-29 31-99 25-36 45-72 45-80 0-24-38-86-145-236-65-92-100-133-108-128-76 48-317 215-317 219 0 9 129 192 162 230 35 40 57 42 129 14 39-16 54-18 65-9 25 20 15 33-54 76-38 23-108 72-156 108-71 53-90 64-102 54-22-18-18-28 31-80 25-26 45-57 45-67s-41-78-91-150c-75-108-94-130-108-122-61 34-346 249-345 261 2 21 220 324 252 350 25 20 35 21 138 16s111-4 123 15c7 11 11 21 9 23-5 5-273 85-284 85-5 0-31-35-59-77zM1930 3700c-12-8-13-14-1-45 32-90 21-115-314-729-240-441-240-416-5-350 154 44 485 129 778 199l153 37 61-37c54-33 61-36 75-22 14 13 11 20-24 58-52 57-149 181-193 247-38 57-42 59-60 37-10-12-8-25 11-69 17-43 20-58 11-69-15-18-236-82-256-74-13 5-235 281-265 331-12 21-8 32 51 137 36 63 72 115 80 117 7 1 35-14 61-34 44-34 49-36 64-21 14 14 10 22-51 94-37 42-86 106-109 140-45 67-45 67-67 53zm77-749c40-53 69-98 65-102-9-8-464-131-468-126-2 1 51 101 117 220l120 217 47-57c26-32 80-100 119-152zM4636 3033c-90-217-99-258-71-313 44-85 169-105 234-36 22 23 191 414 191 442 0 8-6 14-12 14-7 0-65 23-128 50s-118 50-121 50c-4 0-45-93-93-207zM7430 3218l-120-50c-41-17-78-33-83-37-7-7 125-338 166-416 8-17 34-41 57-54 68-38 141-19 194 52 37 50 27 101-65 321-46 110-89 201-94 202-6 1-30-7-55-18zM9290 2584c-53-53-211-194-295-261-37-29-39-33-24-48s21-14 81 19c35 20 73 36 84 36 20 0 72-51 215-210 243-271 399-454 399-469 0-9-21-47-46-84-44-64-46-69-30-85 15-15 21-11 94 59 42 42 148 138 235 213 90 79 172 159 192 189 74 110 67 218-21 316-112 124-253 150-413 75-36-16-84-54-142-113l-88-88-111 128c-138 159-150 174-150 191 0 7 24 44 54 82 45 59 52 73 43 88-7 10-14 18-17 18s-30-25-60-56zm635-325c27-7 58-29 97-69 99-101 103-201 12-309a671 671 0 0 0-154-121c-4 0-74 72-155 161-164 180-156 157-76 242 88 93 176 123 276 96zM3193 2294c-4-12 10-32 51-68 34-31 56-59 56-71 0-16-188-376-205-393-2-2-35 15-73 37-39 23-74 41-79 41s-16-13-25-28l-17-29 74-42c41-23 75-47 75-52 0-10-163-293-182-316-15-18-56-16-123 7-32 11-59 19-59 18l-14-19c-11-15 0-24 95-74 59-32 209-116 333-188 272-158 356-192 469-185 150 9 285 111 369 278 56 110 72 175 72 285 0 164-50 290-164 412-84 91-136 127-336 233-85 46-186 102-223 126-75 49-85 52-94 28zm383-279a571 571 0 0 0 243-194c82-134 82-310-1-475-121-241-283-331-481-265-67 22-257 126-308 168l-32 27 28 54c24 47 153 279 160 288 1 1 65-33 141-77 138-79 139-80 157-59 9 11 17 26 17 32 0 7-63 48-139 91l-139 79 27 47c133 233 198 339 207 339 6 0 60-25 120-55zM8096 1643c-76-232-305-896-310-901-4-3-236 635-257 705-15 51-8 62 70 108 51 30 57 40 43 63-6 9-33 2-113-31-57-24-148-59-202-76-75-25-97-37-93-48l6-19c0-2 37-1 83 2 77 6 83 5 95-16 17-28 204-501 266-674 26-71 46-140 44-155-2-20-20-36-84-75-63-38-80-54-76-68 6-24 18-23 93 11 36 16 98 39 139 51l75 22 124 366c67 202 147 434 175 516l53 150 32-85c77-200 211-591 211-615 0-20-13-33-64-65-50-32-63-44-59-59 7-26 16-25 93 10 36 16 123 48 193 72 110 37 127 46 125 63-3 22-9 23-105 11-59-7-62-6-80 21-21 30-213 525-298 768-50 144-54 150-81 153l-29 3-69-208zM5065 1478l-71-9-17-142c-13-111-14-143-4-149 29-19 45-7 68 50 14 34 42 75 70 103 37 38 56 49 102 59 105 21 206-13 266-90 31-42 33-48 29-111-3-52-9-75-31-106-38-55-95-83-277-138-85-25-173-57-195-70a234 234 0 0 1-127-222c1-140 92-249 254-304 55-19 79-21 195-17 73 3 136 8 140 11 5 6 15 60 39 225 7 41 6 42-22 42-26 0-32-7-53-57-47-106-123-152-235-140-117 12-186 78-186 178 0 108 53 149 280 214 165 48 239 84 289 141 52 60 74 126 69 212-13 233-252 364-583 320zM6955 1434c-55-7-146-13-202-13-102-1-103-1-103-26 0-20 6-25 38-30 50-8 81-22 88-39 3-7-12-67-33-132l-39-119-39-6c-66-11-392-32-407-27-16 6-128 217-128 241 0 10 21 22 58 34 45 16 58 24 60 43 4 22 2 22-50 16-29-3-113-9-186-13-126-6-133-7-130-26 2-14 18-25 57-38 33-10 63-28 77-46 31-37 176-301 369-668l161-304c2-2 13-1 26 3 20 5 32 33 91 218 102 315 286 820 309 845 11 12 42 30 69 39 39 14 49 22 49 41 0 26 8 26-135 7zm-352-671c-42-126-79-232-83-236a4654 4654 0 0 0-228 429l103 13c91 10 135 14 247 19l36 2-75-227z"/></g><g fill="#FFB81C"><path d="m5957 9868-202-1002c-30-149-58-288-61-310-3-23-54-282-113-576-89-443-110-535-123-532-9 1-192 54-408 118-216 63-397 113-401 112-5-2 322-334 726-738l735-735v2198c0 1208-1 2197-3 2197l-150-732zM6420 9122c0-15 88-470 104-537 4-16 22-23 95-38 592-117 1149-501 1504-1037 80-121 201-364 247-495 35-100 100-348 100-381 0-20 20-25 286-78 157-32 288-55 291-52 7 7-14 163-42 301-74 369-244 762-468 1085a3078 3078 0 0 1-785 772 2965 2965 0 0 1-1197 463c-128 19-135 19-135-3zM8760 5842l-285-58-23-104a2439 2439 0 0 0-1046-1495 2402 2402 0 0 0-787-321l-87-18-56-281-56-287c0-12 39-9 171 13a2951 2951 0 0 1 1886 1145c224 297 408 677 497 1031 33 131 86 434 74 432l-288-57z"/></g></svg>