<svg xmlns="http://www.w3.org/2000/svg" width="7376" height="1162" viewBox="0 0 73760 11620"><path fill="#FE9935" d="M16065 11614c-2506-31-4823-253-7005-670a27390 27390 0 0 1-2900-710 18803 18803 0 0 1-2546-964c-9 0-536-266-639-322-315-173-504-286-775-463a6686 6686 0 0 1-1140-914c-439-441-716-849-893-1316A2345 2345 0 0 1 41 4990c67-394 247-803 529-1200 838-1182 2626-2271 5065-3085 727-243 1573-476 2394-661l213-48 42 24c22 13 84 51 136 85l238 153 143 91 43-19c53-22 170-55 273-77 70-15 287-17 2226-20l2147-3v1470l-1982 2-1983 3-60 36c-65 38-117 99-159 185-29 59-80 208-90 264-3 19 9-11 29-68 65-192 139-305 231-352l49-25 696-3 697-3 168 110 914 596 595 388 570 372c242 158 445 289 451 292 8 3 13-74 18-269 10-413 46-858 92-1138 96-594 318-1115 599-1406 214-223 488-367 817-431 88-17 191-18 1793-18h1700l108 23c157 33 258 67 382 128 239 117 443 302 601 547a2850 2850 0 0 1 210 412c118 280 218 739 265 1210 53 545 53 1420 0 1915-114 1055-434 1784-936 2131a1459 1459 0 0 1-535 221l-105 23-1610 3c-1620 3-1743 1-1910-33-229-47-460-162-635-319-282-252-501-645-640-1152-22-81-43-150-46-153-4-3-4 3-1 14l32 125c15 57 46 163 69 235 222 673 588 1096 1081 1250 241 75 96 70 1970 70h1680l108-23c337-71 553-191 782-434 195-207 386-562 504-935l32-103h988l4-1937c4-2100 1-1977 57-2178 137-489 564-885 1096-1017l89-22 2688-3 2687-3v1470l-2528 2c-2417 3-2529 4-2555 21-16 10-37 32-47 50-20 31-20 61-18 1774l3 1742 21 28c46 62-88 58 1819 58 1662 0 1741-1 1773-18 62-34 62-34 62-587v-500h-724c-398 0-731-3-740-6-14-6-16-80-16-735v-729h2950v2590h537l28-62 70-153 65-140 57-120c19-38 50-104 68-145l80-175 70-150a37180 37180 0 0 0 259-556l219-469 262-565 172-370 93-200 93-200a1867545 1867545 0 0 1 482-1035c125-270 147-315 201-405 144-244 357-407 629-482 95-26 111-27 310-27 184 0 220 3 289 22 100 28 216 78 309 134 92 55 228 190 296 293 44 67 147 266 213 415l66 140 72 155c26 59 60 131 130 280l138 295 102 220 95 205 63 135 65 140 60 130 69 150a133381 133381 0 0 0 408 875l132 285c59 123 146 310 206 440l75 160 74 160c46 100 140 303 191 410l72 155a123167 123167 0 0 0 250 540l70 150c39 81 70 148 70 150 0 1 24 54 54 116l74 159 60 130 81 173c22 49 41 90 41 93 0 2-1192 4-2650 4-2639 0-2649 0-2660 20s-8 20 1305 20c723 0 1315 2 1315 5 0 6-54 84-114 165-711 960-2041 1850-3861 2582-2729 1097-6360 1782-10285 1938-712 28-1544 41-2155 34zm-2575-4746v-23h-2123c-2259 0-2169 2-2357-47-403-104-746-402-965-838a3721 3721 0 0 1-260-698c-10-40-19-71-22-69-13 14 89 351 164 542 276 701 703 1074 1310 1144 37 5 1010 9 2161 10l2092 1v-22zm12990-6c323-75 568-222 808-486 131-144 231-317 292-504 42-131 37-138-9-12-76 213-177 370-348 543a1433 1433 0 0 1-746 419l-102 23h-2030c-1635 0-2045-3-2105-13-294-52-542-184-773-410a1414 1414 0 0 1-362-570c-15-46-29-81-32-79-7 8 63 209 102 291 114 240 375 515 618 650 82 46 213 99 311 126 177 49 136 48 2276 46l2005-2 95-22zm2812-330c389-830 530-1128 538-1136 9-9 618 10 668 20 18 4 25 0 29-16 5-20 6-20 1174-20 980 0 1169-2 1169-14 0-7-27-71-61-142a55584 55584 0 0 0-363-776l-154-329-142-305-246-522-44-96a21127 21127 0 0 1-202-430c-17-39-70-152-118-252-96-198-110-214-191-222-79-7-122 27-166 133-12 28-53 116-92 197s-71 150-71 152c0 3-36 80-80 172l-80 169-39 87-176 378-177 380-135 290-123 265-170 365-92 200-495 1065c-236 506-310 665-322 685-7 13-109 15-807 18-802 2-813 3-814 35 0 4 363 7 808 7l807-1 167-357zM18370 5354c136-63 218-242 299-654 76-385 94-1470 35-2090-52-549-157-817-348-889l-58-21-1381 2-1382 3-47 22c-160 74-255 267-302 608-48 348-73 1017-56 1505 13 392 36 671 56 685l557 369 637 422 95 64 925-2c915-3 925-3 970-24zM7750 5123c-11-17-11-17-6 0 3 10 7 26 7 35 1 15 2 15 6 0 2-10-1-25-7-35zm-15-83c-9-41-17-33-9 9 4 17 9 30 11 27 3-2 2-19-2-36zM35380 6843V2805l2453-5c2319-5 2454-6 2480-23 56-37 56-35 58-532 1-440 1-458-18-484-45-60 151-56-2532-59l-2453-2 6-23c3-12 6-343 6-735V230l2608 3 2607 3 85 21c336 84 614 254 823 503 172 204 266 393 319 648 23 105 23 118 23 812 0 741 0 745-47 934a866 866 0 0 1-187 349l-35 39 26 19c58 42 145 212 182 355 21 83 60 306 91 529l75 535 90 640 70 500c60 420 100 711 100 721 0 5-280 9-730 9-576 0-731-3-734-12l-16-98c-6-47-16-110-21-140l-34-225-50-325-107-690-18-120-34-225-36-230-30-195c-27-178-37-220-60-258-41-67 97-62-1787-62h-1708l-3 1290-2 1290h-730c-402 0-730-3-730-7zM42770 4825V2800l2464-2 2465-3 29-28c17-17 35-48 41-72 7-28 11-192 11-459 0-461-2-475-63-512-31-19-74-19-2489-22l-2458-2V230l2613 2 2612 3 100 27c191 51 318 107 464 203 123 80 154 107 276 229 205 207 317 414 377 694 23 106 23 113 23 857 0 678-2 759-18 845-63 336-249 639-532 870a1323 1323 0 0 1-493 250c-209 56-93 53-2097 59l-1850 6-3 1288-2 1287h-1470V4825zM49320 4825V2800h2455c2236 0 2458-1 2480-16 14-9 34-31 45-49 19-31 20-48 20-493v-460l-24-29c-14-16-42-35-64-41-30-9-637-12-2476-12h-2436V230l2613 3c2900 3 2629-3 2845 68 376 125 710 417 880 771 72 150 106 268 128 447 17 142 20 1281 3 1408-35 267-97 426-218 564-38 44-43 53-30 63 28 20 89 107 114 162 73 160 120 390 205 994l90 640 90 640 90 640c17 113 30 209 30 213s-330 6-732 5l-733-3-17-115-37-240a46543 46543 0 0 1-101-655l-46-290-34-225-19-125a100386 100386 0 0 1-90-585c-40-262-50-292-112-323-21-10-63-18-100-19-35-2-803-1-1706 0l-1643 2v2580h-1470V4825zM58240 6843c-361-35-627-151-870-380a1965 1965 0 0 1-332-428 2592 2592 0 0 1-129-272c-39-86-130-358-163-488-138-553-198-1248-176-2055 22-791 90-1294 234-1716 155-459 339-746 616-965 164-130 391-230 635-281l110-23h3410l105 22c494 105 828 368 1082 853 280 532 418 1334 418 2418 0 865-96 1556-289 2078-31 85-46 120-122 283l-49 107c0 2 186 4 413 4 228 0 416 2 418 4s3 194 1 425l-2 421h-420c-393 0-420-1-420-17v-395c-1-213-5-380-10-383-8-5-70 75-70 90 0 3-24 39-54 79-282 381-610 573-1055 616-87 9-3196 12-3281 3zm3069-1491c120-64 193-201 259-487 61-262 87-514 102-1007 16-511-8-1143-56-1468-59-401-159-609-321-670-54-20-66-20-1437-18l-1382 3-68 34c-177 91-254 288-311 807-16 148-35 650-35 935 0 571 32 1019 95 1334 68 336 184 522 346 554 24 5 656 8 1404 7l1360-1 44-23zM64639 6840l-1-25 1-415 1-400h1249c1214 0 1249-1 1272-19l24-19 3-274c3-264 2-275-18-301l-21-26-897-4c-812-3-904-5-972-21a872 872 0 0 1-580-500c-60-150-61-163-58-680l3-471 31-87a831 831 0 0 1 554-537c118-39 230-42 1325-39l1050 3 3 423 2 422h-1023c-715 0-1033 3-1055 11-49 17-54 50-50 331 3 242 3 248 26 270l23 23 912 5 912 6 70 23a837 837 0 0 1 351 216c159 157 218 265 249 460 11 68 15 184 15 470 0 381-7 476-41 575a922 922 0 0 1-484 525c-159 63-52 59-1527 62-915 2-1348 0-1349-7zM68270 6425v-425h860v850h-860v-425zM69400 4935V3020l423 2 422 3 3 1488 2 1487h2130v850h-2980V4935zM72909 6846c-2-2-3-194-1-425l2-421h850v850h-423c-233 0-426-2-428-4z"/><g fill="#6766CC"><path d="M16065 11614c-2506-31-4823-253-7005-670a27390 27390 0 0 1-2900-710 18803 18803 0 0 1-2546-964c-9 0-536-266-639-322-315-173-504-286-775-463a6686 6686 0 0 1-1140-914c-439-441-716-849-893-1316A2345 2345 0 0 1 41 4990c67-394 247-803 529-1200 838-1182 2626-2271 5065-3085 727-243 1573-476 2394-661l213-48 42 24c22 13 84 51 136 85s162 105 245 157c138 88 175 118 145 118-29 0-284 140-310 169-3 4-23 19-45 36-194 143-382 409-530 750a4113 4113 0 0 0-168 535l-21 105c-29 141-49 267-66 407l-20 165c-59 495-65 1381-11 1883 61 567 142 935 288 1305 279 706 702 1074 1318 1145 59 6 812 10 2168 10h2077l-2-732-3-733-1975-5-1975-5-45-21c-129-60-235-257-289-534-53-280-77-543-90-990-9-315-7-469 10-810 15-302 24-404 58-645 26-187 90-389 157-501 46-76 84-115 142-145l47-24 696-3 697-3 168 110a1498225 1498225 0 0 1 2309 1506l230 150 12 365c13 425 21 531 64 860 150 1151 588 1874 1264 2085 241 75 96 70 1970 70h1680l108-23c337-71 553-191 782-434 195-207 386-562 504-935l32-103h987l6 31c3 17 6 62 6 99 0 155 55 376 137 548 156 329 508 636 862 752 214 69 55 65 2301 65h2025l110-23c287-62 514-187 738-410a1367 1367 0 0 0 432-944l7-117 274-3c176-2 275 1 278 7 2 6-3 21-10 35-18 35-134 280-134 284a49596 49596 0 0 1-168 356l-86 184-66 141-65 139c-97 202-165 348-165 352 0 2 363 4 808 4l807-1 167-357c390-831 530-1128 538-1136 10-10 684 15 695 26 7 6-5 34-91 216-30 62-54 115-54 117s-31 69-70 150l-70 150a63893 63893 0 0 0-376 808l-15 27h1315c724 0 1316 2 1316 5 0 6-54 84-114 165-711 960-2041 1850-3861 2582-2729 1097-6360 1782-10285 1938-712 28-1544 41-2155 34zM60390 9665v-505l-387-2-388-3-2-113c-1-63 1-120 4-128 4-12 142-14 909-14h904v260h-770l-2 503-3 502-132 3-133 3v-506z"/><path d="M15527 5398c-32-13-77-42-102-66-101-96-183-308-215-557-6-49-15-114-21-144-13-75-12-104 4-98 10 4 791 518 1184 781 51 33 89 64 85 68s-160 11-347 17-383 13-435 16c-83 5-102 3-153-17z"/></g><path fill="#1F1A17" d="M38896 10164c-88-27-138-91-376-479l-215-350-3 418-2 417h-271l3-547c3-498 5-552 21-593 43-109 142-156 241-115 80 34 119 86 396 530 148 238 278 442 288 455 15 19 22 21 39 12 16-9 235-351 550-860 52-85 151-152 223-152 61 0 121 38 150 95l25 49 3 563 3 563h-261l-2-416-3-416-114 183c-63 101-146 234-186 294l-114 178c-104 162-236 219-395 171zM47716 10164c-60-22-103-57-636-527l-495-437-3 485-2 485h-271l3-537c3-484 5-543 21-584a233 233 0 0 1 307-130c57 22 88 45 275 210l488 430c198 174 363 318 368 319 5 2 9-197 9-487v-491h270v520c0 337-4 537-11 570a242 242 0 0 1-323 174zM57347 10166c-60-22-103-54-288-218-608-537-849-748-854-748-3 0-5 218-5 485v485h-270v-523c0-578 1-594 62-663 17-19 54-47 82-61 42-22 59-25 112-20 79 6 142 40 248 133l521 458 440 388 3-491 2-491h271l-3 543c-4 485-6 547-21 588a233 233 0 0 1-300 135zM72966 10164c-59-21-100-56-636-528l-495-436-3 485-2 485h-270v-498c0-511 4-582 40-652 53-102 174-145 290-101 65 25 66 26 634 526 268 237 492 432 497 433 5 2 9-202 9-487v-491h270v520c0 337-4 537-11 570a242 242 0 0 1-323 174zM32307 10163c-10-10-8-819 3-891 18-126 96-246 201-309s121-64 696-61c515 3 518 3 575 26 74 30 165 98 205 154 82 114 97 285 35 410a545 545 0 0 1-193 201c-90 53-135 57-716 57h-533v420h-133c-74 0-137-3-140-7zm1400-714c104-51 123-168 37-234-73-56-66-55-566-55-429 0-466 2-503 19-22 10-51 31-65 45-23 25-25 37-28 137l-4 109h543c530 0 544 0 586-21zM34192 9703c4-454 4-470 26-527a383 383 0 0 1 287-262c76-21 1028-20 1107 1a464 464 0 0 1 289 231c63 128 46 297-41 412l-40 52 39 58c63 94 73 135 79 330l4 172h-272v-127c0-71-5-146-11-168-14-50-64-100-114-114-27-7-215-11-567-11h-528v420h-261l3-467zm1346-237c68-11 132-82 132-146 0-63-23-96-92-129l-64-32-474 3c-449 3-477 4-507 22-64 39-78 70-81 183l-4 103 509 2c523 3 526 3 581-6zM36420 10156a443 443 0 0 1-310-345c-16-84-12-493 4-572a408 408 0 0 1 324-328c35-7 227-11 565-11 557 0 577 2 679 57 57 31 138 113 167 171 44 87 51 141 51 407 0 272-6 313-56 405a553 553 0 0 1-221 201l-58 24-550 2c-419 1-561-1-595-11zm1116-275c94-43 106-88 102-370-3-203-4-219-26-259-18-34-35-49-75-68l-52-24h-971l-51 26c-41 20-57 35-75 72-21 43-23 63-26 237-5 278 13 345 102 386 38 17 75 19 536 19s498-2 536-19zM40430 10154c-77-21-128-54-195-126-64-69-99-136-115-218-16-83-12-492 5-574a423 423 0 0 1 310-321c50-12 143-15 575-15 553 0 575 2 680 53a459 459 0 0 1 220 304c7 34 10 148 8 311l-3 257-37 78a465 465 0 0 1-300 257c-26 6-256 9-568 9-430 0-535-3-580-15zm1116-273c94-43 106-88 102-370-3-203-4-219-26-259-18-34-35-49-75-68l-52-24h-971l-51 26c-41 20-57 35-75 72-21 43-23 62-26 244-5 279 9 332 100 377 42 21 54 21 538 21 460 0 498-2 536-19zM42377 10159a487 487 0 0 1-281-227c-49-97-56-147-56-402 0-257 8-310 58-404a450 450 0 0 1 283-215c27-7 303-11 727-11h682v260h-1326l-52 26c-39 19-58 37-75 68-21 39-22 52-22 281 0 269 2 279 72 332l36 28 684 3 683 3v269l-687-1c-379-1-705-5-726-10zM43930 9535v-635h270v1270h-270v-635zM44700 10156c-78-21-123-48-188-112a448 448 0 0 1-132-256c-13-85-12-426 0-513a430 430 0 0 1 315-360c88-22 1072-22 1160 0a443 443 0 0 1 315 317c5 24 10 161 10 304 0 234-2 269-20 326a477 477 0 0 1-207 253c-89 53-114 55-683 54-385 0-537-4-570-13zm1097-267c15-5 41-22 57-37 52-49 56-71 56-319 0-251-7-286-65-331-53-42-79-43-591-40l-490 3-37 25c-20 13-45 41-56 61-20 34-21 53-21 283 0 264 2 277 53 324 13 13 37 27 53 32 43 13 1006 12 1041-1zM49950 10006v-164l-207-4c-228-5-263-12-358-73a417 417 0 0 1-184-263c-7-32-11-162-11-327v-275h260v253c0 138 5 270 10 292 13 58 72 110 142 124 38 8 200 11 519 9 464-3 464-3 504-26 22-13 52-39 65-59 25-36 25-37 28-315l3-278h269v278c0 308-7 360-61 443a581 581 0 0 1-169 162c-76 44-155 57-357 57h-183v330h-270v-164zM52430 10154c-75-20-125-52-191-121-114-119-129-178-129-494 0-130 5-260 10-289a427 427 0 0 1 315-335c50-13 160-15 737-15h678v260h-1326l-44 23c-26 13-57 40-75 65l-30 44-3 195c-5 259 0 294 46 345 20 23 51 47 69 55 26 10 162 13 698 13h665v270l-682-1c-568 0-692-3-738-15zM54308 10151c-31-10-72-28-90-39a615 615 0 0 1-181-209l-32-68-3-267c-2-174 1-287 8-323a436 436 0 0 1 336-335c34-7 234-10 585-8l534 3 65 28c93 40 151 86 199 159 69 104 74 131 79 406 3 199 1 256-12 316a463 463 0 0 1-208 293c-102 62-117 63-698 62-478 0-530-2-582-18zm1129-272c23-11 53-35 65-52 22-31 23-41 26-280 3-234 2-251-18-291-13-28-34-50-63-67l-42-24h-1010l-43 23c-34 18-49 35-68 75-23 50-24 60-24 272 0 193 3 225 19 261 19 42 70 88 106 97 11 2 242 5 514 6 482 1 496 0 538-20zM57820 10036v-135l648-3 648-3 36-25c89-60 91-148 5-207l-40-28-501-6c-476-5-504-6-557-26a424 424 0 0 1-240-201c-20-39-24-62-24-142 0-84 3-101 28-148 37-70 99-130 170-166 114-56 113-56 745-56h582v270h-563c-475 0-571 2-615 15-83 25-117 89-69 132 55 52 66 53 546 53 471 0 541 5 629 45 71 32 165 124 200 194 24 51 27 66 27 166s-3 115-28 167a520 520 0 0 1-217 202l-65 31-672 3-673 3v-135zM60390 9665v-505l-387-2-388-3-2-113c-1-63 1-120 4-128 4-12 142-14 909-14h904v260h-770l-2 502-3 503-132 3-133 3v-506zM61560 9753c0-230 5-447 10-483a426 426 0 0 1 299-350c59-19 93-20 565-20 544 0 567 2 666 56 70 38 146 119 183 193 30 61 32 72 32 171 0 118-16 168-80 246l-35 42 44 65c60 89 76 164 76 351v146h-260v-127c0-71-5-146-11-168-15-52-66-99-123-114-31-7-210-11-565-11h-521v420h-280v-417zm1407-304c76-37 109-111 80-180-16-40-91-95-141-104-17-3-238-5-492-3l-461 3-42 29c-61 42-71 69-71 181v95h542c529 0 543-1 585-21zM63800 10154a433 433 0 0 1-309-338c-7-37-11-221-11-488v-428h280v448c0 508-3 490 83 531 44 22 49 22 555 19 498-3 511-4 538-24 15-11 37-33 48-48 20-27 21-41 24-477l3-449h269v453c0 498-2 515-61 609a452 452 0 0 1-258 192c-78 23-1075 23-1161 0zM65730 10154c-77-21-128-54-193-123a452 452 0 0 1-117-220c-16-85-12-493 5-575a423 423 0 0 1 310-321c50-13 159-15 737-15h678v259l-672 3-673 3-42 24c-30 17-50 39-65 70-22 44-23 58-23 276 0 262 5 285 78 333l41 27 678 3 678 2v270l-682-1c-568 0-692-3-738-15zM67619 10156a441 441 0 0 1-309-343c-8-39-10-145-8-318 5-284 9-307 71-407 52-86 153-153 265-177 36-7 269-11 727-11h675v259l-672 3-673 3-41 24c-24 13-52 41-65 65-23 39-24 53-27 235-2 107-1 218 3 247 8 68 39 113 95 142l44 22h1336v270l-687-1c-523-1-699-4-734-13zM69180 9535v-635h270v1270h-270v-635zM69950 10156a472 472 0 0 1-305-291c-23-64-33-447-16-576a426 426 0 0 1 326-375c39-11 168-14 570-14 556 0 581 2 677 51 99 51 192 171 217 280 6 24 11 162 11 306 0 280-7 329-58 413a671 671 0 0 1-167 165c-92 53-115 55-685 54-387-1-537-4-570-13zm1097-267c15-5 41-22 57-37 52-49 56-71 56-319 0-251-7-286-65-331-53-42-79-43-591-40l-491 3-37 29c-75 57-76 61-76 339 0 265 2 278 53 325 13 13 37 27 53 32 43 13 1006 12 1041-1z"/></svg>