<svg xmlns="http://www.w3.org/2000/svg" width="1354.4" height="864.9" viewBox="0 0 13544 8649.3"><g fill="var(--title,#fff)"><path d="M4785 8636c-108-34-152-144-100-252 42-86 167-124 197-60 31 65-20 159-94 173-40 7-40 19 0 48 40 30 166 29 257-2 193-66 422-291 613-605 59-97 286-519 286-532 0-4-15 6-32 21-93 77-204 71-244-15-25-52-14-138 30-239 49-115 55-154 25-176-85-59-328 57-492 234-146 158-225 308-234 446-7 94 11 144 61 176 96 60 304-41 425-208 48-67 83-84 96-44 9 29-19 75-98 155a662 662 0 0 1-265 175c-97 30-151 24-220-27-120-89-101-326 44-550 103-160 268-310 420-384 184-89 313-81 367 22 28 52 18 132-33 266-44 119-47 146-14 151 34 5 134-78 174-143 52-84 76-108 98-96 17 9 28-3 88-92 38-56 98-133 135-170 56-58 71-68 95-65 40 4 40 25 0 92-51 85-91 195-151 421-82 305-136 479-184 589-61 140 34 3 276-397 238-392 356-558 508-712 50-50 121-114 158-141 276-205 573-216 683-27 24 40 29 61 32 140 5 101-7 146-41 165-16 8-23 7-34-8-7-10-10-25-7-34 14-31 16-129 4-166-15-48-52-89-105-117-31-17-57-22-120-22-87 0-185 27-185 50 0 7-42 55-94 107-138 137-209 257-366 623-170 393-286 592-431 738-99 99-93 105 37 42 52-26 89-53 137-104 83-88 215-288 304-460l69-134 61-13c33-7 75-20 93-29 17-9 34-14 37-12 2 3-61 131-142 285-168 322-198 415-104 315 75-80 174-244 302-499l66-132 43-6c24-4 69-17 101-30 31-13 57-22 57-20 0 3-61 121-135 262-128 245-179 357-169 374 9 14 49-21 101-85 37-46 53-76 62-119 13-59 69-156 112-194 13-11 38-26 54-33 22-9 52-46 112-136 45-68 85-137 89-152 19-78 95-188 134-193 79-11 65 69-35 195-45 57-47 62-42 110 3 28 21 86 40 129l35 79 68-134 96-191c22-48 31-58 52-58 14 0 57-12 96-26 40-14 74-24 76-22 3 4-79 166-223 438-67 127-87 180-73 194 24 24 218-221 295-374 39-77 103-157 184-232 133-121 237-164 291-120 53 43 23 197-60 302-75 94-178 70-149-35 8-28 32-59 85-110 71-68 92-105 59-105-45 0-180 174-255 328-71 146-77 251-13 236 82-20 196-139 341-356 28-42 56-79 62-83 17-11 50 5 50 24 0 37-180 283-275 375-151 148-279 152-360 11-9-15-18-8-64 55-97 129-193 186-266 156-19-8-35-19-35-23s-6-16-14-25c-11-15-18-11-72 40-33 31-91 73-129 92-59 30-79 35-137 35-59 0-71-3-93-26l-26-26-63 63c-64 64-110 86-160 77-29-6-76-49-76-69 0-22-16-16-35 13-29 44-97 114-126 129-36 18-89 18-115-1-12-8-29-31-39-51l-17-36-59 65c-103 114-216 172-399 207-52 10-122 29-155 44-77 33-151 35-160 5-14-44 81-99 171-99 45 0 138-72 203-156 34-45 102-171 197-364 260-530 320-641 414-765 74-98 44-78-46 31a4766 4766 0 0 0-362 519c-328 518-456 686-626 823-87 70-129 90-151 72-23-19-18-33 21-71 95-92 154-215 259-544l101-314c18-58 32-106 30-109-3-2-33 56-67 129-228 487-345 672-541 854a1000 1000 0 0 1-433 255c-90 23-161 25-224 5zm2632-756c17-12 48-42 68-68a415 415 0 0 0 99-316l-5-60-47 70c-36 55-44 73-37 88 15 28-19 87-70 122-79 54-121 102-121 139 0 18 3 36 7 39 14 14 75 6 106-14zM9156 7491c-98-20-153-83-154-174-1-75 32-133 94-166 56-29 95-21 116 24 29 60-28 166-88 166-41 0-44 14-10 43 62 53 194 46 326-17 232-110 358-259 614-731 172-317 285-484 429-634 39-40 71-76 71-79 0-8-230 8-330 24-142 22-173 33-166 58 46 163 24 320-72 511a931 931 0 0 1-201 275c-111 109-209 163-311 168-66 4-69 3-108-32-30-27-43-49-52-85-51-213 208-629 522-837 65-43 69-48 52-61-47-34-198-1-305 68-86 56-209 177-275 270-30 43-61 80-70 83-19 7-44-10-44-31 0-38 156-229 255-313 174-147 376-202 503-137l52 27 48-23c61-31 155-63 256-87 69-17 182-29 412-43 41-3 66-13 125-51 147-95 335-173 475-197 79-14 124-6 154 26 74 79-68 210-313 289-100 33-258 63-372 71l-90 7-86 87c-130 131-209 259-348 566-168 367-223 456-378 606a1430 1430 0 0 1-338 247c-134 66-300 101-393 82zm408-633c106-49 277-262 356-446 56-129 81-296 54-366l-10-26-39 20c-180 92-427 364-505 556-37 90-47 211-22 250 32 49 79 53 166 12zm1589-1143c119-21 261-83 261-114 0-28-131-14-245 27-76 28-225 100-225 109 0 8 103-3 209-22z"/><path d="M10248 7183c-90-57-86-224 7-365 92-139 302-314 417-348 33-10 48-10 62-1s21 7 36-9c9-10 27-19 39-19 19 0 90-22 148-45 12-5-32 92-134 291-108 213-150 306-147 324 4 24 6 23 57-30 76-79 211-286 305-467l81-157 55-11c30-6 75-21 98-34 24-12 46-20 48-18 3 2-43 94-102 203a3952 3952 0 0 0-214 432c0 6 9 12 21 12 28 0 114-88 177-182 47-69 52-83 52-131 0-141 103-342 186-363 36-9 67 22 61 61-9 52-45 136-102 240-59 107-62 115-41 115 28 0 116-93 181-189 92-138 234-270 369-340 111-59 196-35 196 55s-96 181-310 293c-110 57-119 64-141 109-12 26-24 71-27 99-6 65 8 73 74 48 90-34 219-179 365-410 89-141 186-271 217-294 15-10 42-22 59-26 28-6 37-2 63 23 18 18 30 41 30 56 0 37 11 32 43-17 34-53 53-75 95-109 54-45 112-34 112 22 0 40-36 89-136 184-93 89-94 90-94 138 0 38 3 48 16 48 41 0 95-52 167-160l83-124c110-166 159-216 213-216 23 0 81 46 81 65 0 31 20 22 56-25 87-114 191-151 252-90 66 66 54 130-70 367-44 84-78 160-76 169 8 41 109-80 238-286 40-63 77-118 83-122 15-9 47 10 47 28 0 43-209 346-288 416-89 80-186 64-213-35-17-64 3-126 95-292 95-169 105-195 81-195-58 0-242 269-395 580l-42 85-104 31c-57 17-104 30-104 29l111-206c248-454 281-564 70-234-144 225-214 290-303 283-34-3-44-8-58-35-16-30-18-31-32-15-21 23-158 275-158 289 0 7-19 17-42 23-24 6-70 20-102 30-33 11-61 19-62 17-2-2 49-102 113-222 134-255 195-383 190-398-4-13-77 88-152 213-181 301-343 471-476 499-44 10-57 9-93-8-47-21-83-63-92-110-4-17-8-31-10-31s-25 14-51 31c-40 25-55 30-89 25l-41-5-57 84c-71 105-132 160-201 181-50 16-54 16-91-2-23-11-46-32-55-52l-17-33-56 68c-104 125-178 153-240 91-18-18-35-40-39-48-4-12-11-8-29 15-40 53-90 105-119 125-41 30-107 35-145 12zm143-104c122-133 327-487 309-533-21-56-219 173-325 375-60 115-79 200-44 200 11 0 38-19 60-42zm1432-692c52-39 142-130 159-163 24-43-7-32-68 24-60 55-158 173-144 173 3 0 27-15 53-34zM8012 7118c-26-21-23-86 5-127 65-96 167-105 167-14 0 93-115 186-172 141zM1169 7645c-381-30-671-148-881-358a952 952 0 0 1-266-484c-20-76-22-113-22-302 0-222 9-302 55-485 106-420 322-866 606-1253 30-41 53-75 51-77l-58-20a984 984 0 0 1-383-245c-69-76-92-131-92-215 0-89 33-152 120-233 69-65 123-94 215-118 115-29 156-19 470 119 69 30 151 63 183 73l58 18 91-100c608-665 1606-1398 2469-1813 561-270 993-375 1278-312 141 31 250 88 336 175a522 522 0 0 1 165 417c0 165-37 313-120 481-357 721-1372 1418-2510 1722-359 96-873 176-1133 176h-78l-50 78c-66 101-170 314-209 427-137 393-128 755 26 1080 24 51 25 52 97 73 126 37 150 41 258 51 266 23 671-54 1099-209 391-142 731-347 841-507 44-63 66-138 84-276 17-137 26-164 69-225 95-135 331-193 489-120 77 36 160 121 197 200 17 38 30 57 33 48l32-100c120-374 453-792 827-1037 280-184 622-285 820-244 232 49 331 229 214 391l-33 46 45 44c75 75 120 192 134 345 2 24 14 3 54-100 91-228 124-368 148-615 19-191 26-217 79-283 75-92 194-154 312-164 85-7 165 24 227 87l46 48 24-25c44-48 143-116 225-155 147-72 275-74 410-8 78 39 163 129 189 199 20 58 29 63 39 24 15-64 80-235 125-329 78-167 147-225 265-225 100 0 179 49 250 157l37 55 111-114c234-236 474-344 652-292 119 34 194 98 247 211 71 151 54 281-78 601-35 86-64 159-64 163s24 5 53 2c62-5 132 25 181 77 17 17 33 31 37 31 3 0 9-19 12-42 21-148 122-382 247-573 222-337 542-612 850-731 76-29 113-37 185-41 123-7 185 16 271 101 82 81 108 148 101 256-11 173-107 350-316 588l-81 91 44 30c25 17 54 43 65 57 12 15 23 25 25 23 16-17 197-472 235-593 30-93 61-257 76-391 15-144 72-238 176-290 117-60 207-49 279 32l39 44 43-42c146-142 296-183 426-118 66 33 109 77 144 149 18 37 22 63 22 145 0 137-37 257-122 390-138 214-297 265-385 123-17-26-32-48-34-48-9 0-156 235-206 330-31 58-101 213-158 345-121 285-139 323-181 370-65 75-166 97-250 54a436 436 0 0 1-148-148c-7-17-16-31-20-31a1534 1534 0 0 1-662 496 501 501 0 0 1-539-114 499 499 0 0 1-109-186c0-34-19-22-45 27-44 86-135 205-225 298-146 149-304 234-437 233-123-1-294-117-358-243-33-67-45-146-34-228 13-94 81-288 173-495 14-32 22-58 17-58-13 0-126 136-175 210a4764 4764 0 0 0-370 750c-87 221-106 258-158 305-114 102-291 81-422-49-73-74-90-112-94-222-4-99 10-192 59-387l29-123c0-3-28 23-63 59-154 156-329 164-428 20l-32-47-29 35c-51 60-174 251-236 364-64 117-120 237-227 485-133 310-178 380-276 431-54 27-141 35-208 19-106-25-247-142-278-231-10-27-21-48-24-47-4 2-35 41-70 88a1825 1825 0 0 1-641 524c-300 137-590 153-805 45a596 596 0 0 1-279-316c-14-48-34-64-34-27 0 28-52 148-102 237-251 443-790 840-1523 1124a6036 6036 0 0 1-1295 347c-116 15-443 27-535 20zm4533-2181c62-31 145-117 185-190 33-62 67-189 67-252 0-48-34-238-44-248-11-11-117 70-179 137-162 176-223 368-175 554l9 38 42-6c23-4 66-19 95-33zM2350 4106c299-40 687-149 1009-286 435-184 824-475 1013-757 73-110 104-187 106-267l1-59-40-8c-49-9-184 6-290 33-466 116-1156 545-1670 1041-98 93-276 288-283 309-5 12 18 11 154-6z"/><path d="M5859 3515c-201-49-281-212-168-344 59-69 116-91 264-100 217-15 331-70 493-240 196-206 280-376 555-1110 196-524 316-769 451-923 23-26 40-50 37-54-9-8-482 55-622 83-237 48-436 123-579 218-121 81-176 154-191 260-10 62 9 70 134 63 127-7 225-40 391-132 119-66 159-79 210-65 46 13 126 80 161 137 16 26 20 44 16 73-17 130-332 380-589 470-287 99-568 51-753-130a370 370 0 0 1-123-271c-10-203 87-409 291-617 242-248 551-423 917-520 249-67 469-97 991-137 508-39 624-58 801-131 136-55 191-58 259-15 115 73 104 225-27 358l-64 68c0 1 13 5 30 8 59 12 148 116 171 202 16 55-8 120-143 389-167 333-308 646-292 646 2 0 34-20 72-45 106-68 164-88 257-89 72-1 88 3 147 32a301 301 0 0 1 178 270c0 77-27 162-104 325l-55 118 33-6c40-8 99 15 139 52 15 15 27 25 28 22l3-24c39-301 265-628 581-839 251-169 482-202 614-89 123 105 121 259-6 450-21 31-78 100-128 152-54 57-85 96-77 99 24 8 73 54 87 83 55 106-60 289-267 423-246 159-430 193-596 109a471 471 0 0 1-168-168c-3-14-9-25-13-25-3 0-22 30-41 67a775 775 0 0 1-251 256c-171 101-353 94-465-18-64-64-79-109-71-215 7-88 29-156 97-298 28-58 48-107 45-110-9-9-83 68-130 134-57 79-140 237-205 387-98 231-134 286-205 318-81 37-181 16-261-54-54-48-94-124-94-182 0-165 293-1012 530-1530a11081 11081 0 0 1 374-745c-3 0-45 13-93 30-48 16-127 36-175 45-48 8-94 18-101 23-49 27-192 231-274 392-71 138-113 249-256 680s-210 607-290 758a2226 2226 0 0 1-430 567 1689 1689 0 0 1-579 404 790 790 0 0 1-471 55z"/></g><path fill="#dc2b1b" d="M11886 4290c35-25 76-106 169-331 212-516 436-876 546-878 38 0 45 31 23 102-11 35-20 75-20 90 0 53 51 73 108 44 72-37 189-199 233-321 30-84 32-216 4-264-34-59-68-76-143-76-89 1-151 34-258 140a2113 2113 0 0 0-280 392c-1-1 11-56 27-122s31-154 35-195c10-127-18-158-117-125-67 23-135 85-149 135-6 21-17 92-25 157-17 134-49 269-101 427-34 102-64 180-198 508-69 168-81 246-45 292 46 58 129 69 191 25zM11592 2903l-33 2c-321 24-762 371-1028 808-130 215-193 420-184 598 3 52 12 116 22 141 29 82 115 164 196 188 65 18 172 12 263-14 110-32 199-72 284-129 239-159 458-444 414-540-9-20-19-26-45-26-38 0-98 37-237 145-152 117-250 153-334 121-24-9-51-25-59-34-15-17-11-21 65-72 436-292 733-594 820-836 12-34 23-93 25-139 4-69 1-86-19-125-30-59-76-86-150-88zm-224 330c20 1 35 10 45 29 56 101-192 396-520 617-42 29-79 52-83 52-3 0-4-12 0-27 12-54 74-197 113-262 92-154 262-332 365-384 34-17 60-26 80-25zM8489 5147c43-28 91-113 179-316 198-459 295-642 448-849 179-241 351-350 424-269 35 38 23 89-64 289-144 327-192 473-199 601-5 81-3 92 22 143 18 38 40 65 68 83 36 24 50 27 121 26 103-1 170-26 274-103 169-127 323-325 352-455 13-57 1-89-38-105-41-17-77 2-177 99-96 92-121 110-155 110-33 0-50-17-50-49 0-47 63-229 155-446 73-172 133-345 146-420 39-223-134-349-356-260-225 90-472 338-732 737-125 193-114 179-107 138 4-19 33-119 65-223 78-250 97-343 79-386-20-50-70-83-125-83-80 0-123 45-187 194a7115 7115 0 0 0-369 1269c-20 117-21 142-11 178 33 109 147 156 237 97zM6828 5651c73-35 102-87 261-464 135-321 292-611 431-796 82-108 143-165 201-185 79-27 99 15 64 130-27 86-26 101 4 130 105 106 380-171 441-443 72-322-201-447-495-226-109 82-272 278-377 452-26 45-50 80-52 78-1-2 6-39 17-82 46-177 65-370 41-413-15-29-64-44-114-37-62 10-159 60-195 101-38 44-48 79-67 250-35 317-100 530-319 1040-128 296-140 356-85 418 16 19 44 42 62 50 46 23 129 21 182-3zM5284 6127c116-16 282-67 381-116 284-143 532-399 675-695 60-126 88-205 108-314 48-254 17-453-81-528-54-41-144-45-218-9-65 32-121 94-136 150-9 33-8 58 6 121l27 130c16 77 5 249-20 319a623 623 0 0 1-369 377c-106 35-236 18-285-37-116-133-93-416 52-639 101-153 270-302 451-394 52-27 161-70 240-95 221-71 247-94 241-209-4-66-116-85-282-48-411 92-854 427-1110 839a1486 1486 0 0 0-215 549 665 665 0 0 0 0 267c33 188 155 309 335 334 90 13 83 13 200-2zM4830 1912c-64 0-106 6-186 23-242 49-527 151-835 300a8925 8925 0 0 0-2223 1584c-97 98-153 159-303 329l-28 31-58-13c-101-24-283-94-413-158-117-58-129-62-195-62-87 0-167 36-220 98-151 176 17 340 470 457 72 19 110 33 109 42-1 7-30 54-66 103-430 600-634 1027-720 1515-30 170-32 447-4 565a854 854 0 0 0 437 594c106 57 233 93 409 115 72 9 409-3 525-19 422-56 954-201 1390-378 721-292 1214-665 1415-1072 64-130 90-225 97-356 13-246-58-369-214-369-85 0-154 35-193 97-40 62-50 103-60 236-11 154-47 226-179 358-219 220-559 391-1085 545-581 171-1005 186-1296 47a603 603 0 0 1-267-273 756 756 0 0 1-81-327c-15-239 21-459 112-708 53-142 194-423 268-535l63-95 85-2c336-9 737-58 1049-128 855-193 1599-580 2145-1113 237-232 380-420 480-633 65-136 90-241 90-369-1-167-35-250-141-336-84-69-145-87-303-92-29-1-53-2-74-1zm-519 576c48 1 89 8 123 22 105 42 153 112 152 220-1 91-16 151-66 256-54 113-137 223-263 347a1991 1991 0 0 1-363 292 3937 3937 0 0 1-1495 572c-126 22-189 27-397 31-192 4-248 3-248-7 0-33 240-311 449-520 381-381 761-667 1199-905 369-201 701-311 909-308zM10195 1412c-37-1-81 4-133 18-235 60-507 273-672 526-157 241-194 456-103 592 47 70 116 103 216 103 42 0 103-7 135-15a850 850 0 0 0 394-240c88-92 131-172 114-209-20-45-69-29-208 65-96 66-150 89-209 89-51 0-127-34-109-49l114-71c348-211 557-423 594-601 26-132-21-203-133-208zm-168 232 6 2c114 36-56 255-333 429-89 56-106 64-106 48 0-17 46-118 79-176 53-91 201-240 276-277 37-18 63-27 78-26zM7889 2925c24-16 30-27 174-307 181-353 336-563 465-631 58-31 97-33 120-7 16 18 17 23 2 82-9 35-55 143-101 240-119 250-145 354-107 429 28 56 73 80 153 80 139 0 248-64 379-221 62-75 92-137 88-181-7-69-59-62-150 18-81 71-112 88-137 74-50-26-41-62 87-340 111-243 126-288 126-381 0-77-14-105-71-140-54-34-157-32-235 4-161 73-338 244-502 485-27 39-51 70-54 68-5-6 20-82 84-251 109-290 258-627 427-970 168-340 178-376 119-438-40-42-91-38-142 11-106 102-428 774-635 1327-97 259-214 614-256 773-37 146-38 209-3 251 40 48 117 59 169 25zM6044 3354c100-19 251-80 363-147 335-198 601-493 804-892 90-177 141-308 267-687 100-299 166-469 241-618 90-180 204-351 307-460 39-42 48-47 103-53 192-21 426-123 551-238 54-50 76-89 76-135 0-75-38-80-180-23-156 61-317 90-647 115-693 51-873 75-1155 151-498 135-902 426-1080 779a529 529 0 0 0-70 262c0 141 66 244 198 306 65 31 71 32 202 32 153 0 220-14 362-75 151-65 375-225 440-314 32-44 35-71 11-98-27-30-69-21-197 41-190 92-290 122-421 128-109 5-110 5-175-28-57-30-69-41-93-89-34-67-32-113 12-205 100-210 372-354 831-439 191-35 848-116 945-116 16 0-7 29-99 123-246 251-350 439-555 1003-187 515-257 684-359 869-149 270-349 470-543 545-60 23-112 34-214 44-187 20-245 55-245 149 0 88 107 112 320 70z"/></svg>